<?xml version="1.0" encoding="UTF-8"?>
<svg id="_レイヤー_2" data-name="レイヤー 2" xmlns="http://www.w3.org/2000/svg" viewBox="0 0 541.7836914 32.046875">
  <defs>
    <style>
      .cls-1 {
        fill: #fff;
        stroke-width: 0px;
      }
    </style>
  </defs>
  <g id="top">
    <g>
      <path class="cls-1" d="m0,.4443359h4.9404297l3.2045898,24.1689453h.0893555L11.4389648.4443359h4.4956055l-4.7182617,31.1572266h-6.4985352L0,.4443359Z"/>
      <path class="cls-1" d="m27.1958008.4443359h4.8964844v31.1572266h-4.8964844V.4443359Z"/>
      <path class="cls-1" d="m44.6435547.4443359h6.1425781l4.7626953,18.6503906h.0888672V.4443359h4.3618164v31.1572266h-5.0292969l-5.8754883-22.7441406h-.0888672v22.7441406h-4.3623047V.4443359Z"/>
      <path class="cls-1" d="m76.3793945,4.8955078h-5.1186523V.4443359h15.1333008v4.4511719h-5.1186523v26.7060547h-4.8959961V4.8955078Z"/>
      <path class="cls-1" d="m99.3925781.4443359h6.6318359l5.0742188,31.1572266h-4.8959961l-.890625-6.1865234v.0888672h-5.5634766l-.8901367,6.0976562h-4.5400391L99.3925781.4443359Zm5.3408203,20.8310547l-2.1806641-15.4003906h-.0893555l-2.1362305,15.4003906h4.40625Z"/>
      <path class="cls-1" d="m121.9140625,24.2128906V7.8330078c0-4.984375,2.4926758-7.8330078,7.2998047-7.8330078s7.2993164,2.8486328,7.2993164,7.8330078v2.6708984h-4.6289062v-2.9824219c0-2.2255859-.9790039-3.0712891-2.5371094-3.0712891-1.5576172,0-2.5371094.8457031-2.5371094,3.0712891v17.0478516c0,2.2255859.9794922,3.0263672,2.5371094,3.0263672,1.5581055,0,2.5371094-.8007812,2.5371094-3.0263672v-6.0986328h-2.4477539v-4.4501953h7.0766602v10.1923828c0,4.9853516-2.4921875,7.8339844-7.2993164,7.8339844s-7.2998047-2.8486328-7.2998047-7.8339844Z"/>
      <path class="cls-1" d="m148.5756836.4443359h13.3530273v4.4511719h-8.456543v8.234375h6.7207031v4.4511719h-6.7207031v9.5693359h8.456543v4.4511719h-13.3530273V.4443359Z"/>
      <path class="cls-1" d="m189.6582031.4443359h6.1425781l4.7626953,18.6503906h.0888672V.4443359h4.3618164v31.1572266h-5.0292969l-5.8754883-22.7441406h-.0888672v22.7441406h-4.3623047V.4443359Z"/>
      <path class="cls-1" d="m221.3500977.4443359h6.6318359l5.0742188,31.1572266h-4.8959961l-.890625-6.1865234v.0888672h-5.5634766l-.8901367,6.0976562h-4.5400391L221.3500977.4443359Zm5.3408203,20.8310547l-2.1806641-15.4003906h-.0893555l-2.1362305,15.4003906h4.40625Z"/>
      <path class="cls-1" d="m246.0981445,4.8955078h-5.1186523V.4443359h15.1333008v4.4511719h-5.1186523v26.7060547h-4.8959961V4.8955078Z"/>
      <path class="cls-1" d="m267.1967773,24.2128906V.4443359h4.8959961v24.125c0,2.2255859.9345703,3.0263672,2.4926758,3.0263672,1.5576172,0,2.4921875-.8007812,2.4921875-3.0263672V.4443359h4.71875v23.7685547c0,4.9853516-2.4931641,7.8339844-7.300293,7.8339844-4.8066406,0-7.2993164-2.8486328-7.2993164-7.8339844Z"/>
      <path class="cls-1" d="m294.1704102.4443359h7.2548828c5.0742188,0,7.2548828,2.359375,7.2548828,7.1660156v1.9140625c0,3.2050781-1.0234375,5.2519531-3.2041016,6.1425781v.0888672c2.4472656.7568359,3.2490234,3.0712891,3.2490234,6.5878906v5.4746094c0,1.5136719.0439453,2.6259766.5341797,3.7832031h-4.9853516c-.2675781-.8007812-.4453125-1.2910156-.4453125-3.828125v-5.6972656c0-2.8925781-.8457031-3.8271484-3.0712891-3.8271484h-1.6914062v13.3525391h-4.8955078V.4443359Zm6.6757812,13.3535156c1.8251953,0,2.9384766-.8017578,2.9384766-3.2939453v-2.4033203c0-2.2255859-.7568359-3.2050781-2.4931641-3.2050781h-2.2255859v8.9023438h1.7802734Z"/>
      <path class="cls-1" d="m324.793457.4443359h6.6318359l5.0742188,31.1572266h-4.8964844l-.8896484-6.1865234v.0888672h-5.5644531l-.8896484,6.0976562h-4.5400391l5.0742188-31.1572266Zm5.3408203,20.8310547l-2.1806641-15.4003906h-.0888672l-2.1367188,15.4003906h4.40625Z"/>
      <path class="cls-1" d="m347.7612305.4443359h4.8955078v26.7060547h8.0566406v4.4511719h-12.9521484V.4443359Z"/>
      <path class="cls-1" d="m387.9975586.4443359h6.9873047l3.1162109,22.2998047h.0888672l3.1162109-22.2998047h6.9873047v31.1572266h-4.6289062V8.0117188h-.0888672l-3.5605469,23.5898438h-4.0947266l-3.5615234-23.5898438h-.0888672v23.5898438h-4.2724609V.4443359Z"/>
      <path class="cls-1" d="m420.4907227,24.2128906V7.8330078c0-4.984375,2.6259766-7.8330078,7.4335938-7.8330078,4.8066406,0,7.4326172,2.8486328,7.4326172,7.8330078v16.3798828c0,4.9853516-2.6259766,7.8339844-7.4326172,7.8339844-4.8076172,0-7.4335938-2.8486328-7.4335938-7.8339844Zm9.9707031.3115234V7.5214844c0-2.2255859-.9794922-3.0712891-2.5371094-3.0712891-1.5585938,0-2.5371094.8457031-2.5371094,3.0712891v17.0029297c0,2.2255859.9785156,3.0712891,2.5371094,3.0712891,1.5576172,0,2.5371094-.8457031,2.5371094-3.0712891Z"/>
      <path class="cls-1" d="m447.5541992.4443359h7.4775391c4.8955078,0,7.2998047,2.7158203,7.2998047,7.7001953v15.7568359c0,4.9853516-2.4042969,7.7001953-7.2998047,7.7001953h-7.4775391V.4443359Zm7.3886719,26.7060547c1.5576172,0,2.4921875-.8007812,2.4921875-3.0263672V7.921875c0-2.2246094-.9345703-3.0263672-2.4921875-3.0263672h-2.4931641v22.2548828h2.4931641Z"/>
      <path class="cls-1" d="m474.527832.4443359h13.3525391v4.4511719h-8.4570312v8.234375h6.7216797v4.4511719h-6.7216797v9.5693359h8.4570312v4.4511719h-13.3525391V.4443359Z"/>
      <path class="cls-1" d="m499.5874023.4443359h7.2548828c5.0742188,0,7.2548828,2.359375,7.2548828,7.1660156v1.9140625c0,3.2050781-1.0234375,5.2519531-3.2041016,6.1425781v.0888672c2.4472656.7568359,3.2490234,3.0712891,3.2490234,6.5878906v5.4746094c0,1.5136719.0439453,2.6259766.5341797,3.7832031h-4.9853516c-.2675781-.8007812-.4453125-1.2910156-.4453125-3.828125v-5.6972656c0-2.8925781-.8457031-3.8271484-3.0712891-3.8271484h-1.6914062v13.3525391h-4.8955078V.4443359Zm6.6757812,13.3535156c1.8251953,0,2.9384766-.8017578,2.9384766-3.2939453v-2.4033203c0-2.2255859-.7568359-3.2050781-2.4931641-3.2050781h-2.2255859v8.9023438h1.7802734Z"/>
      <path class="cls-1" d="m526.4282227.4443359h6.1416016l4.7626953,18.6503906h.0898438V.4443359h4.3613281v31.1572266h-5.0292969l-5.875-22.7441406h-.0898438v22.7441406h-4.3613281V.4443359Z"/>
    </g>
  </g>
</svg>