<?xml version="1.0" encoding="UTF-8"?>
<svg id="_レイヤー_2" data-name="レイヤー 2" xmlns="http://www.w3.org/2000/svg" viewBox="0 0 539.09375 23.0244141">
  <defs>
    <style>
      .cls-1 {
        stroke-width: 0px;
      }
    </style>
  </defs>
  <g id="top">
    <g>
      <path class="cls-1" d="m7.2548828,20.6064453l-.2832031-.875c-1.4404297.9775391-2.5981445,1.5439453-3.8847656,1.5439453-2.2636719,0-3.0869141-2.0068359-3.0869141-3.5498047,0-2.0839844,1.105957-5.6347656,5.8911133-8.1044922.0517578-1.1572266.1289062-1.7744141.2060547-2.4433594-.5146484.0253906-1.1064453.0507812-1.9296875.0507812-.8491211,0-1.5693359-.0507812-2.0063477-.0771484l-.6435547-2.8291016c.6689453.1279297,1.8007812.359375,3.421875.359375.7202148,0,1.1831055-.0507812,1.5693359-.0771484.4370117-2.1347656.6430664-3.0351562.9775391-4.5273438l2.6240234.8486328c.5146484.1806641.6948242.2578125.6948242.4375,0,.2060547-.0517578.2314453-.4633789.3857422-.2827148.1035156-.8486328,2.0068359-1.003418,2.546875,2.4697266-.4111328,4.1679688-.7197266,6.3544922-1.671875v2.9580078c-2.6240234.6953125-4.1162109.9521484-6.9458008,1.3378906-.1801758,1.0292969-.2060547,1.1318359-.2832031,1.8007812.3085938-.0507812.9262695-.1279297,1.9550781-.1279297.4633789,0,.7207031,0,.9775391.0253906.0771484-.2060547.3603516-1.0810547.4116211-1.2607422l2.7788086.6943359c-.1289062.3603516-.1801758.4638672-.4116211,1.0810547,1.1318359.4375,4.5791016,1.7236328,4.5791016,5.9423828,0,2.3408203-1.3891602,6.2001953-7.3320312,7.7177734l-1.6723633-2.3408203c1.2607422-.2568359,6.1230469-1.2861328,6.1230469-5.3251953,0-2.546875-1.4663086-3.2158203-2.546875-3.7304688-1.2348633,2.6240234-2.1865234,4.3730469-4.0131836,6.3027344.3085938.9521484.4370117,1.2607422.5400391,1.5693359l-2.5981445,1.3378906Zm-1.4150391-8.2578125c-2.3666992,1.6201172-3.1645508,3.8847656-3.1645508,5.0673828,0,.8242188.4116211,1.2353516.9521484,1.2353516.8486328,0,1.9550781-.9775391,2.7011719-1.6210938-.2832031-1.0800781-.4887695-3.6015625-.4887695-4.6816406Zm4.7333984-1.4921875c-.8486328-.0517578-1.4404297,0-2.3154297.3603516-.0253906,1.1318359.1801758,2.8291016.2573242,3.5498047.3603516-.5146484,1.0551758-1.5175781,2.0581055-3.9101562Z"/>
      <path class="cls-1" d="m40.0844727.796875c.2832031.1035156.8232422.2832031.8232422.5146484,0,.0771484-.4370117.3603516-.565918.4375-.2314453.1542969-.9003906,2.1357422-1.0546875,2.5986328,1.9550781-.3857422,2.7011719-.6171875,3.3188477-.9257812l-.1801758,2.90625c-1.0546875.2832031-2.2382812.5146484-4.0649414.7207031-1.8266602,4.9140625-5.1967773,10.5732422-5.3510742,10.8310547l-2.8554688-1.3378906c2.3925781-2.6757812,3.9873047-5.9169922,5.2998047-9.2871094-1.0551758.0507812-2.4443359.1025391-3.4990234.1279297l-.128418-2.7265625c.565918.0517578,1.4663086.1542969,2.4438477.1542969.7202148,0,1.3891602-.0517578,2.109375-.1025391.4887695-1.5185547.9775391-3.0878906,1.3120117-4.7080078l2.3925781.796875Zm6.6118164,20.7617188c-.8491211-.8496094-1.5693359-1.4150391-2.4438477-2.0068359-.2060547,1.0800781-.6948242,3.0361328-4.2709961,3.0361328-2.8554688,0-5.1450195-1.4414062-5.1450195-3.7568359,0-2.0058594,1.8007812-3.6269531,4.3476562-3.6269531,1.1064453,0,1.9038086.1796875,2.3925781.3085938-.0258789-.5654297-.1030273-3.0361328-.1030273-3.5498047,0-1.7236328.5146484-2.3671875,1.2866211-3.0361328l2.546875,1.5439453c-1.2094727,1.0029297-1.2094727,1.4150391-1.2094727,2.1347656,0,.6171875.1030273,3.3193359.1030273,3.859375,1.8525391.9257812,3.0874023,1.8261719,4.1933594,2.7783203l-1.6977539,2.3154297Zm-7.6923828-3.9873047c-1.4921875,0-1.6464844.9511719-1.6464844,1.234375,0,1.1064453,1.5439453,1.3632812,2.2641602,1.3632812,1.8520508,0,1.9291992-1.2607422,1.980957-1.9804688-1.1318359-.4121094-1.8007812-.6171875-2.5986328-.6171875Zm9.4418945-7.1777344c-1.5180664-1.4921875-3.9360352-2.546875-5.6342773-3.1132812l1.3891602-2.0322266c2.7270508.6943359,4.5795898,1.9550781,5.7885742,2.9326172l-1.543457,2.2128906Z"/>
      <path class="cls-1" d="m70.0585938,1.0292969c.2060547.0507812.7978516.2314453.7978516.4111328,0,.0517578,0,.1796875-.0771484.2568359-.0771484.078125-.4375.2832031-.4887695.3603516-.0771484.1035156-.6689453,2.5986328-.7719727,2.984375,2.6499023-.6425781,3.4990234-1.1572266,4.1420898-1.5429688l.1030273,2.8554688c-1.5439453.6943359-3.0361328,1.0546875-5.0170898,1.4404297-2.0834961,7.1259766-3.9101562,10.9335938-5.2739258,13.7636719l-2.9326172-1.1064453c3.112793-4.65625,4.6821289-10.0585938,5.2998047-12.2714844-1.4663086.1289062-2.2895508.1806641-3.9360352.2060547l-.1289062-2.9072266c.6176758.1025391,1.3378906.2060547,2.4956055.2060547.9775391,0,1.7495117-.0771484,2.2382812-.1289062.6689453-2.8554688.8232422-3.9101562.8232422-5.1962891l2.7265625.6689453Zm9.8535156,20.1435547c-1.3120117.2822266-3.3188477.2822266-4.1679688.2822266-4.784668,0-6.8173828-.7714844-6.8173828-3.5498047,0-.7714844.1030273-1.6210938.2832031-2.3671875l2.6499023.6435547c-.1030273.2314453-.2319336.5146484-.2319336.9521484,0,.9775391.5405273,1.5947266,3.3959961,1.5947266,2.5727539,0,3.987793-.3857422,4.7592773-.6171875l.1289062,3.0615234Zm-.2573242-9.6738281c-1.2861328-.2568359-2.8300781-.5136719-4.1674805-.5136719-.3603516,0-2.0327148.0253906-3.5249023.3857422v-2.8046875c.6689453-.0253906,3.6533203-.1279297,4.2451172-.1279297,2.3408203,0,3.0097656.1796875,3.4472656.2822266v2.7783203Z"/>
      <path class="cls-1" d="m101.5507812,19.0888672c1.6210938-.4628906,6.7661133-1.8779297,6.7661133-7.7441406,0-5.8134766-4.8881836-6.5341797-6.4057617-6.765625-.4116211,3.0361328-1.0292969,7.3574219-3.1899414,12.2197266-.2573242.5917969-1.4921875,3.3964844-3.0102539,3.3964844-1.5947266,0-5.2993164-2.2646484-5.2993164-7.4091797,0-5.6601562,4.5532227-10.6513672,11.0878906-10.6513672,5.9428711,0,9.6987305,3.8339844,9.6987305,9.2363281,0,7.203125-5.7885742,9.3642578-7.7177734,10.0839844l-1.9296875-2.3662109Zm-8.5922852-6.3027344c0,2.2890625,1.3120117,3.9619141,2.2124023,3.9619141.565918,0,1.0288086-1.0556641,1.3632812-1.8271484,1.3637695-3.1894531,2.2124023-6.6113281,2.4697266-10.0585938-5.4023438,1.8525391-6.0454102,6.1484375-6.0454102,7.9238281Z"/>
      <path class="cls-1" d="m122.4443359,9.9560547v-2.5986328h14.0722656c.3857422,0,.7202148,0,1.543457-.7978516l2.5727539,2.4443359c-1.1577148.7714844-1.3891602,1.1835938-1.7753906,2.1865234-2.4179688,6.1230469-5.9423828,9.2363281-11.190918,11.2939453l-2.4697266-2.1347656c6.40625-2.2128906,9.2617188-5.0429688,10.934082-10.3935547h-13.6865234Zm14.715332-8.2070312v2.5986328h-12.2714844V1.7490234h12.2714844Z"/>
      <path class="cls-1" d="m160.7539062,10.4707031c-2.6240234,1.7744141-4.5537109,2.8554688-6.6376953,3.78125l-2.237793-2.4179688c8.078125-2.984375,13.0429688-8.4384766,15.28125-11.2167969l1.9296875,1.671875c.7202148.6435547.8232422.6953125.8232422.9267578s-.0771484.2314453-.7978516.2314453c-.2314453,0-.3344727.1289062-1.2602539,1.1318359-1.2348633,1.3115234-2.6499023,2.5214844-4.1162109,3.7041016v13.609375h-2.984375v-11.421875Z"/>
      <path class="cls-1" d="m183.9365234,5.9169922v-2.6757812h14.2006836c.3344727,0,.7719727,0,1.2607422-.5146484l2.3925781,2.3671875q-.7202148.5146484-1.8266602,3.6787109c-1.003418,2.9072266-3.2158203,8.7988281-11.6025391,12.9658203l-2.3666992-2.2890625c7.5375977-3.2929688,10.2646484-7.8212891,11.8081055-13.5322266h-13.8662109Z"/>
      <path class="cls-1" d="m230.5556641,20.7607422c-1.4667969-2.1347656-3.3959961-4.3730469-6.4316406-6.8427734-1.6982422,1.9550781-3.8847656,4.5019531-9.0302734,6.8691406l-2.1865234-2.1611328c2.8300781-1.2353516,9.3388672-4.1933594,12.8632812-12.8896484h-9.9819336v-2.7519531h10.4448242c.565918,0,1.1318359,0,2.2124023-.7724609l2.0068359,2.4697266c-1.1835938.5146484-1.3378906.7978516-1.6464844,1.5185547-.1030273.2822266-.9003906,2.2119141-2.9584961,5.3759766,4.1162109,3.0878906,6.0454102,5.6855469,6.8945312,6.84375l-2.1865234,2.3408203Z"/>
      <path class="cls-1" d="m245.7114258,20.1181641c4.2192383-1.3896484,6.8173828-3.6025391,8.6699219-5.7119141-1.9038086-1.4404297-3.3701172-2.3154297-4.7338867-2.9326172l1.6206055-1.9033203c1.5180664.6689453,3.0102539,1.5693359,4.6826172,2.7011719.6430664-1.0292969,1.6464844-2.7275391,2.3920898-5.09375h-6.9716797c-.7202148,1.1054688-2.4697266,3.6523438-4.8623047,5.2988281l-2.3925781-1.6201172c4.6308594-3.2412109,6.5087891-7.3066406,7.5380859-10.3164062l2.4697266.9775391c.6943359.2832031.6943359.3857422.6943359.5146484,0,.1796875-.1796875.2568359-.3598633.2832031-.309082.0771484-.3603516.1279297-.7207031.8232422-.2827148.5654297-.5400391,1.0546875-.8232422,1.5947266h5.8144531c.5400391,0,1.0805664-.3603516,1.5175781-.7207031l2.2124023,1.9814453c-.9257812.7978516-1.0546875,1.0546875-1.3891602,1.9296875-1.2089844,3.2412109-2.4697266,5.1962891-2.9838867,5.9941406.7202148.5146484,1.5947266,1.2861328,2.1865234,1.8779297l-1.9550781,2.3662109c-.2314453-.2822266-1.2089844-1.4658203-1.8779297-2.0058594-1.2866211,1.5175781-3.5761719,4.1416016-8.6958008,6.2255859l-2.0322266-2.2636719Z"/>
      <path class="cls-1" d="m282.7089844,10.4707031c-2.6240234,1.7744141-4.5537109,2.8554688-6.6376953,3.78125l-2.237793-2.4179688c8.0776367-2.984375,13.043457-8.4384766,15.2817383-11.2167969l1.9287109,1.671875c.7207031.6435547.8232422.6953125.8232422.9267578s-.0771484.2314453-.796875.2314453c-.2314453,0-.3349609.1289062-1.2607422,1.1318359-1.2353516,1.3115234-2.6503906,2.5214844-4.1162109,3.7041016v13.609375h-2.984375v-11.421875Z"/>
      <path class="cls-1" d="m302.8046875,17.8027344c4.6044922-3.2158203,5.3759766-5.96875,5.3759766-11.8603516,0-1.5693359-.0507812-2.5205078-.0771484-3.2929688l2.7275391.3603516c.8232422.1025391.8232422.1796875.8232422.3339844,0,.1806641-.1806641.3603516-.3085938.4638672-.2832031.2568359-.3349609.2822266-.3349609,1.0283203-.0253906,6.5859375-.0507812,10.3681641-6.0195312,15.1787109l-2.1865234-2.2119141Zm11.3701172-15.2050781l2.6503906.3603516c.8232422.1035156.9257812.1035156.9257812.3349609,0,.1796875-.0771484.2314453-.4375.4882812-.3857422.2832031-.3857422.4121094-.3857422.6181641v11.6796875c2.0839844-1.3896484,4.6826172-3.3964844,6.9462891-7.1777344l1.8007812,2.3154297c-.9257812,1.3378906-3.7041016,5.3505859-9.7753906,8.9267578l-1.7246094-1.4921875V2.5976562Z"/>
      <path class="cls-1" d="m353.9521484,10.8564453c-.8232422.3085938-4.4765625,1.7490234-5.2226562,2.0322266.1025391,1.6982422.2314453,3.4990234.2568359,5.1708984h-2.9072266c.1289062-3.3447266.1289062-3.421875.1289062-4.0644531-.9257812.4628906-3.6015625,1.7744141-3.6015625,3.8076172,0,1.8515625,2.1357422,2.0322266,3.6533203,2.0322266.9257812,0,3.1640625-.1035156,6.6376953-.9003906v2.7783203c-1.5439453.2568359-3.3964844.5400391-5.8144531.5400391-2.9326172,0-7.1523438-.3339844-7.1523438-3.9355469,0-3.6533203,3.7822266-5.53125,6.1484375-6.7412109-.1796875-.6171875-.5136719-1.8261719-2.0322266-1.8261719-2.3662109,0-4.4765625,2.984375-5.6591797,4.8369141l-2.3671875-1.5439453c2.9589844-2.9580078,4.4501953-5.5566406,5.1191406-6.9199219-.3339844.0253906-2.4179688.1542969-3.6269531.1025391l-.3603516-2.6757812c1.1318359.1289062,2.2128906.1542969,3.3447266.1542969.6425781,0,.7197266,0,1.7753906-.0253906.3857422-1.0546875.8232422-2.2636719,1.0546875-3.421875l2.4951172.4375c.9257812.1542969.9257812.2568359.9257812.3857422s-.0507812.1806641-.5654297.5400391c-.1035156.0517578-.7724609,1.5185547-.875,1.75,1.3632812-.1542969,3.9365234-.6689453,5.2998047-1.2861328l-.3085938,2.7519531c-1.9814453.4892578-4.9912109.8496094-6.2001953.9775391-.4892578.9785156-.875,1.5957031-1.3378906,2.2382812.4121094-.1542969,1.1318359-.4365234,2.2382812-.4365234,2.3925781,0,3.0869141,1.4140625,3.4726562,2.8808594.6435547-.2568359,2.7792969-1.1572266,4.5029297-2.3925781l.9775391,2.7529297Z"/>
      <path class="cls-1" d="m377.7001953,19.5c-2.0839844.6181641-4.3222656,1.3125-9.4931641,2.6240234-.4375.1035156-.7207031.2314453-.8232422.3867188-.2314453.3339844-.3349609.4365234-.4892578.4365234-.3085938,0-.3603516-.1796875-.5146484-.6171875l-.9003906-2.5986328c1.6728516-.2050781,2.4697266-.3339844,4.3222656-.6689453v-2.7519531c-1.6982422.8486328-2.5986328,1.234375-4.2958984,1.8779297l-1.75-2.2128906c4.8115234-1.6201172,6.84375-2.7011719,9.0820312-4.7080078h-8.6699219v-2.2890625h9.6210938v-1.4150391h-6.3798828v-2.0839844h6.3798828v-1.2861328h-8.9013672V1.9033203h8.9013672V.0253906l2.5986328.1542969c.4121094.0263672.7207031.1289062.7207031.3085938,0,.0771484-.1035156.2060547-.1542969.2578125-.3095703.3339844-.4375.4882812-.4375.7197266v.4375h9.3642578v2.2900391h-9.3642578v1.2861328h6.8427734v2.0839844h-6.8427734v1.4150391h10.0068359v2.2890625h-9.6464844c.8486328,1.7236328,1.5947266,2.7275391,2.4697266,3.8076172,1.6972656-1.4404297,2.4697266-2.109375,3.8330078-3.6787109l1.5693359,1.5175781c.1542969.1542969.3857422.3867188.3857422.5664062s-.1289062.2060547-.4892578.2060547c-.0771484,0-.4375.2822266-.5400391.359375-.7978516.6181641-2.3925781,1.8017578-3.3183594,2.4697266,1.671875,1.4667969,3.2412109,2.5986328,5.7880859,3.4990234l-2.0322266,2.2900391c-5.0419922-2.7529297-6.2773438-4.2197266-9.5703125-9.390625-.9257812.7724609-1.5693359,1.2607422-2.3925781,1.8007812v3.7568359c1.4404297-.3349609,3.0361328-.7724609,4.9912109-1.3896484l.1289062,2.4179688Z"/>
      <path class="cls-1" d="m400.2382812,15.4355469c.5664062-.1289062,1.2861328-.3339844,3.2158203-1.0800781l.1289062,2.2119141c-3.2675781,1.3125-4.65625,1.6728516-7.3320312,2.3408203-.4628906.1289062-.5146484.1806641-.6435547.4638672-.1025391.1279297-.2314453.359375-.4628906.359375-.3085938,0-.3603516-.2822266-.4111328-.5400391l-.4892578-2.3408203c.4121094-.0771484,1.8525391-.3349609,3.421875-.7207031v-5.2998047h-2.8300781v-2.2119141h2.8300781v-4.5791016h-3.1386719V1.8261719h8.8496094v2.2128906h-3.1386719v4.5791016h2.6240234v2.2119141h-2.6240234v4.6054688Zm8.2324219-1.0546875c.6181641.2568359.6689453.2832031.6689453.4882812,0,.2578125-.0771484.2832031-.5654297.4121094-.2832031.0771484-.2832031.1289062-.4638672.6943359-.8740234,3.0097656-2.109375,4.8115234-6.3798828,6.4833984l-1.8525391-2.0068359c4.8369141-1.3896484,5.6601562-3.421875,6.1230469-6.7402344h-1.5175781V.9511719h11.0371094v12.7607422h-3.1132812v5.09375c0,.4892578.3339844.7207031.8486328.7207031h.8232422c1.0810547,0,1.2353516-1.1064453,1.4667969-2.6503906l2.2119141,1.0546875c-.0507812.3095703-.4628906,2.3154297-.9511719,3.0361328-.5664062.8232422-1.2607422,1.0029297-2.0322266,1.0029297h-2.7529297c-2.0585938,0-2.1865234-1.1054688-2.1865234-2.1611328v-6.0966797h-2.9072266l1.5429688.6689453Zm4.5283203-11.3710938h-5.9941406v1.6210938h5.9941406v-1.6210938Zm0,3.4726562h-5.9941406v1.6982422h5.9941406v-1.6982422Zm0,3.5507812h-5.9941406v1.7490234h5.9941406v-1.7490234Z"/>
      <path class="cls-1" d="m438.0849609.4375c1.0029297.1279297,1.1318359.1542969,1.1318359.4882812,0,.1289062-.0771484.2060547-.2578125.3349609-.2822266.2050781-.2822266.3085938-.3085938,3.0097656,2.4697266-.1542969,4.8876953-.3085938,7.3583984-.5400391v2.8291016c-.9013672-.0253906-3.7568359-.0771484-4.3222656-.0771484-1.0546875,0-1.9550781.0517578-3.0097656.1289062l.0507812,3.2929688c.4892578.7460938.9775391,1.5947266.9775391,3.2675781,0,1.4658203-.2822266,3.1894531-1.1572266,5.1455078-1.0292969,2.2890625-2.2128906,3.4726562-3.6279297,4.7070312l-2.8554688-1.3369141c3.0869141-1.9560547,3.7558594-3.4990234,4.4511719-5.1201172-.3857422.4628906-.9003906,1.0546875-2.2646484,1.0546875-1.8007812,0-3.5498047-1.4150391-3.5498047-4.3212891,0-2.8564453,1.8261719-4.8623047,4.3994141-4.8623047.4111328,0,.6943359.0507812.8740234.0771484v-1.7236328c-7.2548828.5908203-8.7460938.8740234-9.5957031,1.0283203l-.3085938-3.0351562c2.4697266-.0263672,4.2958984-.1035156,9.8271484-.3857422-.1025391-1.6464844-.1796875-2.5986328-.4882812-4.296875l2.6757812.3349609Zm-4.7851562,12.7080078c0,.3867188.0771484,2.0839844,1.4150391,2.0839844.6171875,0,1.7236328-.4628906,1.7236328-2.1865234,0-1.6464844-.6181641-2.109375-1.4921875-2.109375-.875,0-1.6464844.9775391-1.6464844,2.2119141Z"/>
      <path class="cls-1" d="m457.484375,14.0722656c3.5253906-2.7529297,6.7666016-5.8662109,9.3388672-9.5185547-2.5976562.3339844-3.3955078.4111328-6.1230469.5917969l-.4365234-2.9589844c.7197266.0517578,1.9550781.1289062,2.6748047.1289062,1.4667969,0,6.0205078-.3857422,8.2841797-1.3378906l1.1835938,2.0322266c-1.5693359,1.1572266-3.0097656,2.7783203-5.6855469,5.8398438.4628906-.1289062,1.1572266-.2832031,2.1347656-.2832031,5.1201172,0,6.0976562,3.7822266,6.0976562,5.9433594,0,4.4501953-3.6015625,7.3574219-8.2578125,7.3574219-1.7236328,0-5.2744141-.4375-5.2744141-3.7304688,0-1.671875,1.1318359-3.4726562,4.0136719-3.4726562,3.3955078,0,4.5537109,2.5722656,4.9130859,3.3701172.7978516-.6689453,1.8525391-1.5693359,1.8525391-3.5507812,0-1.4658203-.5917969-3.6015625-4.1416016-3.6015625-3.5507812,0-5.4287109,2.0839844-8.3867188,5.3251953l-2.1875-2.1347656Zm7.9238281,2.7783203c-.8232422,0-1.4921875.5654297-1.4921875,1.2089844,0,.9775391,1.3642578,1.4150391,2.4697266,1.4150391.6953125,0,1.2871094-.1542969,1.5957031-.2568359-.2314453-.7724609-.6953125-2.3671875-2.5732422-2.3671875Z"/>
      <path class="cls-1" d="m490.0830078,9.9560547v6.4316406c.4882812-.1542969,1.5175781-.4892578,2.0839844-.7207031l.0771484,2.109375c-.7724609.3085938-4.3994141,1.5693359-4.8369141,1.7236328-.2060547.0771484-.3085938.2314453-.4628906.5146484-.0771484.1542969-.1806641.2314453-.3085938.2314453-.2060547,0-.3095703-.3085938-.3349609-.6425781l-.1542969-2.3154297c.4121094-.0771484,1.1064453-.2060547,1.3632812-.2832031V1.5693359l2.5732422.1796875c1.9287109-.1289062,4.5527344-.6689453,6.6113281-1.5693359l1.3378906,1.6728516c.2832031.3339844.3603516.4882812.3603516.6679688,0,.1552734-.1289062.2060547-.3085938.2060547-.1289062,0-.6181641.0263672-.7978516.0263672-.4375.1796875-1.8007812.5654297-2.2900391.6943359-.1279297,1.8779297-.1542969,2.6757812-.1542969,4.3222656h3.3193359v2.1865234h-3.2421875c.1035156,1.9804688.5664062,4.21875,1.1582031,6.1738281.1279297.4121094.3339844,1.0292969.6689453,1.0292969.5146484,0,.5917969-.8232422.6425781-1.5693359l1.9814453.9521484V.8232422h7.7177734l1.6210938,1.1064453c-1.6464844,3.4472656-2.7021484,5.4277344-3.3964844,6.7138672,1.0810547,1.2089844,3.0097656,3.3193359,3.0097656,7.0751953,0,3.7041016-2.6240234,4.1416016-4.7333984,4.3730469l-1.234375-2.4951172c1.9033203-.0253906,3.2929688-.1025391,3.2929688-2.3154297,0-2.2382812-1.1328125-4.3476562-3.1650391-6.2255859.9267578-1.8525391,1.6210938-3.2675781,2.7529297-5.8916016h-3.3183594v19.3720703h-2.546875v-4.6308594c-.4375,1.4404297-1.0039062,3.2675781-2.3925781,3.2675781-1.0292969,0-1.6210938-.7978516-1.9296875-1.2089844v1.9287109h-6.7402344v-2.2890625h6.4833984c-1.6464844-2.6240234-2.2646484-7.4091797-2.3671875-9.6474609h-2.3408203Zm2.2636719-2.1865234c-.0253906-.5410156-.0517578-2.3417969,0-3.859375-.6171875.0771484-1.2353516.1025391-2.2636719.1289062v3.7304688h2.2636719Z"/>
      <path class="cls-1" d="m528.2626953,18.3945312c0,.8232422.1806641,1.3369141,1.4414062,1.3369141h5.0166016c.8740234,0,1.7236328-.1279297,1.8007812-3.1376953l2.5722656,1.1054688c-.1796875,4.1425781-2.1347656,4.6054688-3.6533203,4.6054688h-6.8173828c-1.1064453,0-3.0615234-.2578125-3.0615234-2.3925781v-4.6826172l-8.4638672.9267578-.2314453-2.4960938,8.6953125-.9257812v-2.3408203c-1.0800781.2050781-2.109375.4111328-4.3984375.7197266l-1.2353516-2.4951172c2.9326172-.2060547,8.4384766-.7714844,12.4775391-3.0869141l1.6972656,1.7490234c.2060547.2314453.2832031.2832031.2832031.4121094,0,.1279297-.1025391.1542969-.2050781.1542969-.4892578,0-.6953125,0-.875.0771484-2.6757812,1.1054688-2.9589844,1.234375-5.0429688,1.8007812v2.7265625l9.9824219-1.0546875.2832031,2.4951172-10.265625,1.0556641v3.4472656Zm9.9560547-15.5644531v5.3251953h-2.6748047v-2.9589844h-15.7958984v3.4472656h-2.6757812V2.8300781h9.1845703V.3085938l2.8808594.0771484c.2314453,0,.4892578,0,.4892578.2314453,0,.1289062-.0263672.1289062-.3603516.5146484-.1542969.1796875-.1542969.2832031-.1542969.5400391v1.1582031h9.1064453Z"/>
    </g>
  </g>
</svg>