<?xml version="1.0" encoding="UTF-8"?>
<svg id="_レイヤー_2" data-name="レイヤー 2" xmlns="http://www.w3.org/2000/svg" viewBox="0 0 127.9974878 49.9617605">
  <defs>
    <style>
      .cls-1 {
        fill: #fff;
        stroke-width: 0px;
      }
    </style>
  </defs>
  <g id="top">
    <g>
      <g>
        <path class="cls-1" d="m14.9979023,24.595564h2.4299453c.79495,0,1.8011543.136558,1.8011543,1.0607657v8.3216096s-2.7287309.9886287-7.6717588.9886287c-4.9373621,0-11.5572431-2.677854-11.5572431-10.099507,0-7.3972709,6.8913781-10.299314,11.9936273-10.299314,2.2861027,0,5.1564793.1360954,5.1564793,1.4030433v2.4785095c-1.9404874-1.5588115-2.7224869-1.8354961-5.6679067-1.8354961-2.9443791,0-8.2120936,1.9089206-8.2120936,8.0793356,0,6.1778464,7.0703719,9.8471042,12.9393577,7.5255034v-4.7307483c0-.9913883-.0575833-2.8923305-1.2115616-2.8923305Z"/>
        <path class="cls-1" d="m51.9455591,34.4714443h6.2455861c-1.7299268-.6341099-2.4385018-2.6750789-3.0048531-4.1627628-.5860082-1.4821336-5.1022491-12.2771495-5.609167-13.7738524-.4985926-1.4753115-1.2201181-1.4753115-1.7909789-1.4753115h-3.5913238c1.7309674.5656575.7875529,1.7699344.5035647,2.6083609-.2867601.8548458-6.3217891,15.5348834-6.3217891,15.5348834-2.08618-.5606854-7.31319-8.1245777-7.31319-8.1245777,6.9704654-1.9761011,5.8881771-10.0186667-.9185575-10.0186667h-7.8235798c1.5718618.3415683,1.4295224,1.9777199,1.4295224,3.2385395v13.3577034c0,1.8360743-.576411,2.3221789-1.4967029,2.8156839h5.7266463c-1.5718618-.7012904-1.1557128-2.3284229-1.1557128-3.0945812v-14.409003h3.0945813c1.6457488,0,2.8647107,1.9794543,2.8647107,3.3265332,0,2.1742893-1.7209077,3.0273852-3.4434343,3.6659046-1.7175545.6272878-.7859309,2.0416628,0,3.1797999.8039691,1.1253023,3.0928469,4.2999991,4.4540325,5.8526819,1.368583,1.5474641,2.5689285,1.4786648,3.2328707,1.4786648h5.1678108c-2.0037334-.6341099-.9372894-2.1827303-.6578108-2.95282.2868727-.7939093,1.5887437-4.1035761,1.5887437-4.1035761h7.7383579s.9355549,2.3956189,1.7954885,4.5184533c.8637493,2.1263033.2172671,2.4012692-.7148157,2.5379428Zm-8.0370343-9.3129979l2.9545544-7.5622579,3.141411,7.5622579h-6.0959655Z"/>
        <path class="cls-1" d="m114.7679999,34.4714443h6.2551818c-1.7236777-.6341099-2.4424332-2.6750789-3.0041593-4.1627628-.5753653-1.4821336-5.1006303-12.2771495-5.6002636-13.7738524-.5064554-1.4753115-1.2201181-1.4753115-1.7965291-1.4753115h-3.5840344c1.7254125.5656575.7870824,1.7699344.5052991,2.6083609-.2958996.8548458-6.3167061,15.5348834-6.3167061,15.5348834-.4042393.9157824-.9937164.9377519-1.3521665,1.2686823h5.1530103c-2.0094023-.6341099-.9259577-2.1827303-.6486792-2.95282.2765848-.7939093,1.5763713-4.1035761,1.5763713-4.1035761h7.7591742s.9361331,2.3956189,1.7914414,4.5184533c.8486019,2.1263033.2066292,2.4012692-.7379399,2.5379428Zm-8.0177211-9.3129979l2.9313082-7.5622579,3.1674276,7.5622579h-6.0987358Z"/>
        <path class="cls-1" d="m92.6940554,34.8389136c.7193285-.648101,1.3680077-1.1381371,1.3680077-3.3988167v-13.3441594c0-1.0586999-.0552663-2.2578892-1.3680077-2.6948515h5.53528c-.5707452.5013677-1.252263,1.1337432-1.252263,2.5491588v13.489852c0,1.2019797-.2618999,2.9708735,1.3397942,3.3988167h-5.6228112Z"/>
        <path class="cls-1" d="m62.986746,19.5779554s-.0705337,10.6594986-.0705337,11.8621414c0,1.2019797.158065,2.9708735,1.7310831,3.3988167h-5.2457448c.7232599-.648101,1.2986303-1.1381371,1.2986303-3.3988167,0-2.2532486.134361-12.2935535.134361-13.3441594,0-1.0586999-.134361-2.2578892-1.4329913-2.6948515h4.0250485l12.0467008,14.9075956v-12.1478762c0-.7757555.1507843-2.2583517-1.4983217-2.8235467h5.3799901c-.6482126.5007896-1.5932532.7029092-1.5932532,2.7586788v17.5222005s-1.486065.2720752-3.9308108-2.6253584c-2.444052-2.8907272-10.8441583-13.4148241-10.8441583-13.4148241Z"/>
        <path class="cls-1" d="m97.2729672,49.8622539c-15.7810578-13.0867844-21.8114615-28.4940133-.2314894-49.5274067.6712314-.6464984,1.3182872-.2602972.7859309.3427246-9.4677096,10.634754-20.0036008,27.667381-.2202734,48.5303371.311736.3337055.1874347,1.007245-.3341681.654345Z"/>
      </g>
      <path class="cls-1" d="m125.3451108,34.6399264c-1.4625241,0-2.652377-1.1898529-2.652377-2.652377s1.1898529-2.652377,2.652377-2.652377,2.652377,1.1898529,2.652377,2.652377-1.1898529,2.652377-2.652377,2.652377Zm0-4.9679443c-1.2768511,0-2.3155672,1.0387161-2.3155672,2.3155672s1.0387161,2.3155672,2.3155672,2.3155672,2.3155672-1.0387161,2.3155672-2.3155672-1.0387161-2.3155672-2.3155672-2.3155672Z"/>
      <path class="cls-1" d="m125.984852,33.426556c-.058547-.0546-.093741-.0975235-.093741-.3044116v-.3435526c0-.202941-.0623295-.4683761-.3669056-.4683761h-.7298642v1.1163402h-.5269231v-2.8493976h1.3426343c.5308701,0,.8783696.3279291.8783696.7727877,0,.187482-.062494.3591761-.175641.4879466-.1093645.124988-.2031055.175641-.4450231.2302411.2771116.039141.5464936.121041.5464936.6558581v.2887881c0,.2850055.1054175.3591761.1833706.4137761h-.6127701Zm-.4450231-2.4043745h-.7454877v.8430112h.6596406c.2927351,0,.4723231-.1521236.4723231-.4448586,0-.2577055-.152288-.3981526-.3864761-.3981526Z"/>
    </g>
  </g>
</svg>