<?xml version="1.0" encoding="UTF-8"?>
<svg id="_レイヤー_2" data-name="レイヤー 2" xmlns="http://www.w3.org/2000/svg" viewBox="0 0 157.4780273 21.0712891">
  <defs>
    <style>
      .cls-1 {
        fill: #231815;
        stroke-width: 0px;
      }
    </style>
  </defs>
  <g id="top">
    <g>
      <path class="cls-1" d="m0,15.9208984v-1.1708984h3.043457v1.4052734c0,1.4628906.644043,1.9902344,1.668457,1.9902344,1.0239258,0,1.6679688-.5273438,1.6679688-2.0488281,0-1.6972656-.644043-2.7802734-2.7509766-4.6240234C.9365234,9.1015625.0581055,7.4335938.0581055,5.0917969.0581055,1.8730469,1.7265625,0,4.8579102,0c3.1318359,0,4.6826172,1.8730469,4.6826172,5.1503906v.8496094h-3.043457v-1.0537109c0-1.4638672-.5854492-2.0195312-1.6098633-2.0195312s-1.609375.5556641-1.609375,1.9609375c0,1.4921875.6728516,2.5751953,2.7802734,4.4189453,2.6923828,2.3701172,3.5410156,4.0097656,3.5410156,6.5556641,0,3.3359375-1.6972656,5.2089844-4.8583984,5.2089844-3.1606445,0-4.7407227-1.8730469-4.7407227-5.1503906Z"/>
      <path class="cls-1" d="m16.8833008,3.21875h-3.3657227V.2929688h9.9506836v2.9257812h-3.3657227v17.5605469h-3.2192383V3.21875Z"/>
      <path class="cls-1" d="m30.8994141,12.0576172L27.0068359.2929688h3.4243164l2.1948242,7.5214844h.0585938l2.1953125-7.5214844h3.1313477l-3.8925781,11.7646484v8.7216797h-3.2192383v-8.7216797Z"/>
      <path class="cls-1" d="m42.3974609.2929688h3.2197266v17.5595703h5.296875v2.9267578h-8.5166016V.2929688Z"/>
      <path class="cls-1" d="m55.3891602.2929688h8.7802734v2.9257812h-5.5605469v5.4150391h4.4189453v2.9267578h-4.4189453v6.2919922h5.5605469v2.9267578h-8.7802734V.2929688Z"/>
      <path class="cls-1" d="m76.543457.2929688h3.2197266v8.3408203h3.453125V.2929688h3.2192383v20.4863281h-3.2192383v-9.21875h-3.453125v9.21875h-3.2197266V.2929688Z"/>
      <path class="cls-1" d="m91.5244141,15.9208984V5.1503906c0-3.2773438,1.7265625-5.1503906,4.887207-5.1503906,3.1611328,0,4.8876953,1.8730469,4.8876953,5.1503906v10.7705078c0,3.2773438-1.7265625,5.1503906-4.8876953,5.1503906-3.1606445,0-4.887207-1.8730469-4.887207-5.1503906Zm6.5556641.2050781V4.9462891c0-1.4638672-.644043-2.0195312-1.668457-2.0195312-1.0239258,0-1.6679688.5556641-1.6679688,2.0195312v11.1796875c0,1.4628906.644043,2.0195312,1.6679688,2.0195312,1.0244141,0,1.668457-.5566406,1.668457-2.0195312Z"/>
      <path class="cls-1" d="m106.2719727,15.9208984V.2929688h3.2192383v15.8623047c0,1.4628906.6147461,1.9902344,1.6386719,1.9902344,1.0244141,0,1.6391602-.5273438,1.6391602-1.9902344V.2929688h3.1020508v15.6279297c0,3.2773438-1.6386719,5.1503906-4.7998047,5.1503906-3.1606445,0-4.7993164-1.8730469-4.7993164-5.1503906Z"/>
      <path class="cls-1" d="m120.5209961,15.9208984v-1.1708984h3.043457v1.4052734c0,1.4628906.644043,1.9902344,1.668457,1.9902344,1.0239258,0,1.6679688-.5273438,1.6679688-2.0488281,0-1.6972656-.644043-2.7802734-2.7509766-4.6240234-2.6923828-2.3710938-3.5703125-4.0390625-3.5703125-6.3808594,0-3.21875,1.6679688-5.0917969,4.7993164-5.0917969,3.1318359,0,4.6826172,1.8730469,4.6826172,5.1503906v.8496094h-3.043457v-1.0537109c0-1.4638672-.5854492-2.0195312-1.6098633-2.0195312s-1.609375.5556641-1.609375,1.9609375c0,1.4921875.6728516,2.5751953,2.7802734,4.4189453,2.6923828,2.3701172,3.5410156,4.0097656,3.5410156,6.5556641,0,3.3359375-1.6972656,5.2089844-4.8579102,5.2089844-3.1611328,0-4.7412109-1.8730469-4.7412109-5.1503906Z"/>
      <path class="cls-1" d="m134.8876953.2929688h8.7802734v2.9257812h-5.5605469v5.4150391h4.4189453v2.9267578h-4.4189453v6.2919922h5.5605469v2.9267578h-8.7802734V.2929688Z"/>
      <path class="cls-1" d="m147.8789062,15.9208984v-1.1708984h3.043457v1.4052734c0,1.4628906.644043,1.9902344,1.668457,1.9902344,1.0239258,0,1.6679688-.5273438,1.6679688-2.0488281,0-1.6972656-.644043-2.7802734-2.7509766-4.6240234-2.6923828-2.3710938-3.5708008-4.0390625-3.5708008-6.3808594,0-3.21875,1.668457-5.0917969,4.7998047-5.0917969,3.1318359,0,4.6826172,1.8730469,4.6826172,5.1503906v.8496094h-3.043457v-1.0537109c0-1.4638672-.5854492-2.0195312-1.6098633-2.0195312s-1.609375.5556641-1.609375,1.9609375c0,1.4921875.6728516,2.5751953,2.7802734,4.4189453,2.6923828,2.3701172,3.5410156,4.0097656,3.5410156,6.5556641,0,3.3359375-1.6972656,5.2089844-4.8583984,5.2089844-3.1606445,0-4.7407227-1.8730469-4.7407227-5.1503906Z"/>
    </g>
  </g>
</svg>