<?xml version="1.0" encoding="utf-8"?>
<!-- Generator: Adobe Illustrator 28.0.0, SVG Export Plug-In . SVG Version: 6.00 Build 0)  -->
<svg version="1.1" id="_レイヤー_2" xmlns="http://www.w3.org/2000/svg" xmlns:xlink="http://www.w3.org/1999/xlink" x="0px"
	 y="0px" viewBox="0 0 265.7 101.7" style="enable-background:new 0 0 265.7 101.7;" xml:space="preserve">
<style type="text/css">
	.st0{fill:#231815;}
	.st1{fill:none;stroke:#000000;stroke-width:0.3987;stroke-miterlimit:10;}
	.st2{fill:none;}
</style>
<g id="_ヘッダー">
	<g>
		<g>
			<g>
				<path class="st0" d="M102,48.5v-0.4h1v0.4c0,0.5,0.2,0.6,0.5,0.6c0.3,0,0.5-0.2,0.5-0.6c0-0.5-0.2-0.9-0.9-1.5
					c-0.8-0.7-1.1-1.3-1.1-2c0-1,0.5-1.6,1.5-1.6c1,0,1.5,0.6,1.5,1.6v0.3h-1v-0.3c0-0.5-0.2-0.6-0.5-0.6s-0.5,0.2-0.5,0.6
					c0,0.5,0.2,0.8,0.9,1.4c0.8,0.7,1.1,1.3,1.1,2.1c0,1-0.5,1.6-1.5,1.6C102.5,50.2,102,49.6,102,48.5L102,48.5z"/>
				<path class="st0" d="M107.3,44.6h-1.1v-0.9h3.1v0.9h-1.1v5.5h-1V44.6z"/>
				<path class="st0" d="M111.7,47.3l-1.2-3.7h1.1l0.7,2.4h0l0.7-2.4h1l-1.2,3.7v2.7h-1V47.3z"/>
				<path class="st0" d="M115.3,43.6h1v5.5h1.7v0.9h-2.7L115.3,43.6L115.3,43.6z"/>
				<path class="st0" d="M119.4,43.6h2.8v0.9h-1.7v1.7h1.4v0.9h-1.4v2h1.7v0.9h-2.8V43.6z"/>
				<path class="st0" d="M126,43.6h1v2.6h1.1v-2.6h1v6.4h-1v-2.9h-1.1v2.9h-1V43.6z"/>
				<path class="st0" d="M130.8,48.5v-3.4c0-1,0.5-1.6,1.5-1.6c1,0,1.5,0.6,1.5,1.6v3.4c0,1-0.5,1.6-1.5,1.6
					C131.3,50.2,130.8,49.6,130.8,48.5z M132.8,48.6v-3.5c0-0.5-0.2-0.6-0.5-0.6c-0.3,0-0.5,0.2-0.5,0.6v3.5c0,0.5,0.2,0.6,0.5,0.6
					C132.6,49.2,132.8,49.1,132.8,48.6z"/>
				<path class="st0" d="M135.4,48.5v-4.9h1v5c0,0.5,0.2,0.6,0.5,0.6s0.5-0.2,0.5-0.6v-5h1v4.9c0,1-0.5,1.6-1.5,1.6
					C135.9,50.2,135.4,49.6,135.4,48.5z"/>
				<path class="st0" d="M139.9,48.5v-0.4h1v0.4c0,0.5,0.2,0.6,0.5,0.6c0.3,0,0.5-0.2,0.5-0.6c0-0.5-0.2-0.9-0.9-1.5
					c-0.8-0.7-1.1-1.3-1.1-2c0-1,0.5-1.6,1.5-1.6c1,0,1.5,0.6,1.5,1.6v0.3h-1v-0.3c0-0.5-0.2-0.6-0.5-0.6s-0.5,0.2-0.5,0.6
					c0,0.5,0.2,0.8,0.9,1.4c0.8,0.7,1.1,1.3,1.1,2.1c0,1-0.5,1.6-1.5,1.6C140.4,50.2,139.9,49.6,139.9,48.5L139.9,48.5z"/>
				<path class="st0" d="M144.4,43.6h2.8v0.9h-1.7v1.7h1.4v0.9h-1.4v2h1.7v0.9h-2.8V43.6z"/>
				<path class="st0" d="M148.4,48.5v-0.4h1v0.4c0,0.5,0.2,0.6,0.5,0.6c0.3,0,0.5-0.2,0.5-0.6c0-0.5-0.2-0.9-0.9-1.5
					c-0.8-0.7-1.1-1.3-1.1-2c0-1,0.5-1.6,1.5-1.6c1,0,1.5,0.6,1.5,1.6v0.3h-1v-0.3c0-0.5-0.2-0.6-0.5-0.6s-0.5,0.2-0.5,0.6
					c0,0.5,0.2,0.8,0.9,1.4c0.8,0.7,1.1,1.3,1.1,2.1c0,1-0.5,1.6-1.5,1.6C148.9,50.2,148.4,49.6,148.4,48.5L148.4,48.5z"/>
			</g>
			<g>
				<g>
					<path d="M4.4,100.5l-0.1-0.4c-0.7,0.5-1.2,0.7-1.8,0.7c-1.1,0-1.5-0.9-1.5-1.7c0-1,0.5-2.7,2.8-3.8c0-0.5,0.1-0.8,0.1-1.2
						c-0.2,0-0.5,0-0.9,0c-0.4,0-0.7,0-0.9,0l-0.3-1.3C2,92.9,2.6,93,3.3,93c0.3,0,0.6,0,0.7,0c0.2-1,0.3-1.4,0.5-2.1l1.2,0.4
						c0.2,0.1,0.3,0.1,0.3,0.2c0,0.1,0,0.1-0.2,0.2c-0.1,0-0.4,0.9-0.5,1.2c1.2-0.2,2-0.3,3-0.8v1.4c-1.2,0.3-1.9,0.4-3.3,0.6
						C5,94.6,5,94.6,5,94.9c0.1,0,0.4-0.1,0.9-0.1c0.2,0,0.3,0,0.5,0c0-0.1,0.2-0.5,0.2-0.6l1.3,0.3c-0.1,0.2-0.1,0.2-0.2,0.5
						c0.5,0.2,2.2,0.8,2.2,2.8c0,1.1-0.7,2.9-3.5,3.6l-0.8-1.1c0.6-0.1,2.9-0.6,2.9-2.5c0-1.2-0.7-1.5-1.2-1.8c-0.6,1.2-1,2.1-1.9,3
						c0.1,0.4,0.2,0.6,0.3,0.7L4.4,100.5L4.4,100.5z M3.7,96.6c-1.1,0.8-1.5,1.8-1.5,2.4c0,0.4,0.2,0.6,0.4,0.6
						c0.4,0,0.9-0.5,1.3-0.8C3.8,98.3,3.7,97.1,3.7,96.6z M6,95.9c-0.4,0-0.7,0-1.1,0.2c0,0.5,0.1,1.3,0.1,1.7
						C5.2,97.5,5.5,97,6,95.9z"/>
					<path d="M19.9,91.2c0.1,0,0.4,0.1,0.4,0.2c0,0-0.2,0.2-0.3,0.2c-0.1,0.1-0.4,1-0.5,1.2c0.9-0.2,1.3-0.3,1.6-0.4L21,93.8
						c-0.5,0.1-1.1,0.2-1.9,0.3c-0.9,2.3-2.4,5-2.5,5.1l-1.3-0.6c1.1-1.3,1.9-2.8,2.5-4.4c-0.5,0-1.2,0-1.6,0.1L16,93
						c0.3,0,0.7,0.1,1.2,0.1c0.3,0,0.7,0,1,0c0.2-0.7,0.5-1.5,0.6-2.2C18.7,90.8,19.9,91.2,19.9,91.2z M23,101
						c-0.4-0.4-0.7-0.7-1.2-0.9c-0.1,0.5-0.3,1.4-2,1.4c-1.3,0-2.4-0.7-2.4-1.8c0-0.9,0.8-1.7,2-1.7c0.5,0,0.9,0.1,1.1,0.1
						c0-0.3,0-1.4,0-1.7c0-0.8,0.2-1.1,0.6-1.4l1.2,0.7c-0.6,0.5-0.6,0.7-0.6,1c0,0.3,0,1.6,0,1.8c0.9,0.4,1.5,0.9,2,1.3
						C23.8,99.9,23,101,23,101z M19.3,99.1c-0.7,0-0.8,0.4-0.8,0.6c0,0.5,0.7,0.6,1.1,0.6c0.9,0,0.9-0.6,0.9-0.9
						C20,99.2,19.7,99.1,19.3,99.1z M23.8,95.7c-0.7-0.7-1.9-1.2-2.7-1.5l0.7-1c1.3,0.3,2.2,0.9,2.7,1.4
						C24.5,94.7,23.8,95.7,23.8,95.7z"/>
					<path d="M34,91.3c0.1,0,0.4,0.1,0.4,0.2c0,0,0,0.1,0,0.1s-0.2,0.1-0.2,0.2c0,0-0.3,1.2-0.4,1.4c1.2-0.3,1.6-0.5,2-0.7l0,1.3
						c-0.7,0.3-1.4,0.5-2.4,0.7c-1,3.4-1.8,5.1-2.5,6.5l-1.4-0.5c1.5-2.2,2.2-4.7,2.5-5.8c-0.7,0.1-1.1,0.1-1.9,0.1l-0.1-1.4
						c0.3,0,0.6,0.1,1.2,0.1c0.5,0,0.8,0,1.1-0.1c0.3-1.3,0.4-1.8,0.4-2.4C32.7,91,34,91.3,34,91.3z M38.6,100.8
						c-0.6,0.1-1.6,0.1-2,0.1c-2.3,0-3.2-0.4-3.2-1.7c0-0.4,0-0.8,0.1-1.1l1.2,0.3c0,0.1-0.1,0.2-0.1,0.4c0,0.5,0.3,0.8,1.6,0.8
						c1.2,0,1.9-0.2,2.2-0.3L38.6,100.8z M38.5,96.2c-0.6-0.1-1.3-0.2-2-0.2c-0.2,0-1,0-1.7,0.2v-1.3c0.3,0,1.7-0.1,2-0.1
						c1.1,0,1.4,0.1,1.6,0.1C38.5,94.9,38.5,96.2,38.5,96.2z"/>
					<path d="M48.8,99.8c0.8-0.2,3.2-0.9,3.2-3.6c0-2.7-2.3-3.1-3-3.2c-0.2,1.4-0.5,3.5-1.5,5.8c-0.1,0.3-0.7,1.6-1.4,1.6
						c-0.8,0-2.5-1.1-2.5-3.5c0-2.7,2.1-5,5.2-5c2.8,0,4.6,1.8,4.6,4.3c0,3.4-2.7,4.4-3.6,4.7L48.8,99.8L48.8,99.8z M44.7,96.8
						c0,1.1,0.6,1.9,1,1.9c0.3,0,0.5-0.5,0.6-0.9c0.6-1.5,1-3.1,1.2-4.7C45,94,44.7,96,44.7,96.8z"/>
					<path d="M58.6,95.5v-1.2h6.6c0.2,0,0.3,0,0.7-0.4l1.2,1.2c-0.5,0.4-0.7,0.6-0.8,1c-1.1,2.9-2.8,4.3-5.3,5.3l-1.2-1
						c3-1,4.4-2.4,5.1-4.9C65.1,95.5,58.6,95.5,58.6,95.5z M65.6,91.6v1.2h-5.8v-1.2H65.6z"/>
					<path d="M76.7,95.7c-1.2,0.8-2.1,1.3-3.1,1.8l-1.1-1.1c3.8-1.4,6.1-4,7.2-5.3l0.9,0.8c0.3,0.3,0.4,0.3,0.4,0.4
						c0,0.1,0,0.1-0.4,0.1c-0.1,0-0.2,0.1-0.6,0.5c-0.6,0.6-1.2,1.2-1.9,1.7v6.4h-1.4C76.7,101.1,76.7,95.7,76.7,95.7z"/>
					<path d="M87.6,93.6v-1.3h6.7c0.2,0,0.4,0,0.6-0.2l1.1,1.1c-0.2,0.2-0.5,0.7-0.9,1.7c-0.5,1.4-1.5,4.1-5.5,6.1l-1.1-1.1
						c3.5-1.6,4.8-3.7,5.6-6.4H87.6L87.6,93.6z"/>
					<path d="M109.5,100.6c-0.7-1-1.6-2.1-3-3.2c-0.8,0.9-1.8,2.1-4.3,3.2l-1-1c1.3-0.6,4.4-2,6.1-6.1h-4.7v-1.3h4.9
						c0.3,0,0.5,0,1-0.4l0.9,1.2c-0.6,0.2-0.6,0.4-0.8,0.7c0,0.1-0.4,1-1.4,2.5c1.9,1.5,2.8,2.7,3.2,3.2L109.5,100.6z"/>
					<path d="M116.6,100.3c2-0.7,3.2-1.7,4.1-2.7c-0.9-0.7-1.6-1.1-2.2-1.4l0.8-0.9c0.7,0.3,1.4,0.7,2.2,1.3
						c0.3-0.5,0.8-1.3,1.1-2.4h-3.3c-0.3,0.5-1.2,1.7-2.3,2.5l-1.1-0.8c2.2-1.5,3.1-3.4,3.5-4.9l1.2,0.5c0.3,0.1,0.3,0.2,0.3,0.2
						c0,0.1-0.1,0.1-0.2,0.1c-0.1,0-0.2,0.1-0.3,0.4c-0.1,0.3-0.3,0.5-0.4,0.8h2.7c0.3,0,0.5-0.2,0.7-0.3l1,0.9
						c-0.4,0.4-0.5,0.5-0.7,0.9c-0.6,1.5-1.2,2.4-1.4,2.8c0.3,0.2,0.8,0.6,1,0.9l-0.9,1.1c-0.1-0.1-0.6-0.7-0.9-0.9
						c-0.6,0.7-1.7,2-4.1,2.9L116.6,100.3L116.6,100.3z"/>
					<path d="M134.1,95.7c-1.2,0.8-2.1,1.3-3.1,1.8l-1.1-1.1c3.8-1.4,6.1-4,7.2-5.3l0.9,0.8c0.3,0.3,0.4,0.3,0.4,0.4
						c0,0.1,0,0.1-0.4,0.1c-0.1,0-0.2,0.1-0.6,0.5c-0.6,0.6-1.2,1.2-1.9,1.7v6.4h-1.4L134.1,95.7L134.1,95.7z"/>
					<path d="M143.5,99.2c2.2-1.5,2.5-2.8,2.5-5.6c0-0.7,0-1.2,0-1.6l1.3,0.2c0.4,0,0.4,0.1,0.4,0.2c0,0.1-0.1,0.2-0.1,0.2
						c-0.1,0.1-0.2,0.1-0.2,0.5c0,3.1,0,4.9-2.8,7.1L143.5,99.2z M148.9,92l1.2,0.2c0.4,0,0.4,0,0.4,0.2c0,0.1,0,0.1-0.2,0.2
						c-0.2,0.1-0.2,0.2-0.2,0.3v5.5c1-0.7,2.2-1.6,3.3-3.4l0.8,1.1c-0.4,0.6-1.7,2.5-4.6,4.2l-0.8-0.7L148.9,92L148.9,92z"/>
					<path d="M167.6,95.9c-0.4,0.1-2.1,0.8-2.5,1c0,0.8,0.1,1.6,0.1,2.4h-1.4c0.1-1.6,0.1-1.6,0.1-1.9c-0.4,0.2-1.7,0.8-1.7,1.8
						c0,0.9,1,1,1.7,1c0.4,0,1.5,0,3.1-0.4v1.3c-0.7,0.1-1.6,0.3-2.7,0.3c-1.4,0-3.4-0.2-3.4-1.9c0-1.7,1.8-2.6,2.9-3.2
						c-0.1-0.3-0.2-0.9-1-0.9c-1.1,0-2.1,1.4-2.7,2.3l-1.1-0.7c1.4-1.4,2.1-2.6,2.4-3.3c-0.2,0-1.1,0.1-1.7,0l-0.2-1.3
						c0.5,0.1,1,0.1,1.6,0.1c0.3,0,0.3,0,0.8,0c0.2-0.5,0.4-1.1,0.5-1.6l1.2,0.2c0.4,0.1,0.4,0.1,0.4,0.2s0,0.1-0.3,0.3
						c0,0-0.4,0.7-0.4,0.8c0.6-0.1,1.9-0.3,2.5-0.6l-0.1,1.3c-0.9,0.2-2.3,0.4-2.9,0.5c-0.2,0.5-0.4,0.8-0.6,1.1
						c0.2-0.1,0.5-0.2,1.1-0.2c1.1,0,1.5,0.7,1.6,1.4c0.3-0.1,1.3-0.5,2.1-1.1L167.6,95.9L167.6,95.9z"/>
					<path d="M178.8,100c-1,0.3-2,0.6-4.5,1.2c-0.2,0-0.3,0.1-0.4,0.2c-0.1,0.2-0.2,0.2-0.2,0.2c-0.1,0-0.2-0.1-0.2-0.3l-0.4-1.2
						c0.8-0.1,1.2-0.2,2-0.3v-1.3c-0.8,0.4-1.2,0.6-2,0.9l-0.8-1c2.3-0.8,3.2-1.3,4.3-2.2h-4.1V95h4.5v-0.7h-3v-1h3v-0.6h-4.2v-1.1
						h4.2v-0.9l1.2,0.1c0.2,0,0.3,0.1,0.3,0.1c0,0,0,0.1-0.1,0.1c-0.1,0.2-0.2,0.2-0.2,0.3v0.2h4.4v1.1h-4.4v0.6h3.2v1h-3.2V95h4.7
						v1.1h-4.5c0.4,0.8,0.8,1.3,1.2,1.8c0.8-0.7,1.2-1,1.8-1.7l0.7,0.7c0.1,0.1,0.2,0.2,0.2,0.3c0,0.1-0.1,0.1-0.2,0.1
						c0,0-0.2,0.1-0.3,0.2c-0.4,0.3-1.1,0.8-1.6,1.2c0.8,0.7,1.5,1.2,2.7,1.6l-1,1.1c-2.4-1.3-3-2-4.5-4.4c-0.4,0.4-0.7,0.6-1.1,0.8
						v1.8c0.7-0.2,1.4-0.4,2.3-0.7L178.8,100L178.8,100z"/>
					<path d="M189.4,98.1c0.3-0.1,0.6-0.2,1.5-0.5l0.1,1c-1.5,0.6-2.2,0.8-3.5,1.1c-0.2,0.1-0.2,0.1-0.3,0.2c0,0.1-0.1,0.2-0.2,0.2
						c-0.1,0-0.2-0.1-0.2-0.3l-0.2-1.1c0.2,0,0.9-0.2,1.6-0.3v-2.5h-1.3v-1h1.3v-2.2h-1.5v-1h4.2v1h-1.5v2.2h1.2v1h-1.2
						C189.4,95.9,189.4,98.1,189.4,98.1z M193.3,97.6c0.3,0.1,0.3,0.1,0.3,0.2c0,0.1,0,0.1-0.3,0.2c-0.1,0-0.1,0.1-0.2,0.3
						c-0.4,1.4-1,2.3-3,3.1l-0.9-0.9c2.3-0.7,2.7-1.6,2.9-3.2h-0.7v-6h5.2v6h-1.5v2.4c0,0.2,0.2,0.3,0.4,0.3h0.4
						c0.5,0,0.6-0.5,0.7-1.2l1,0.5c0,0.1-0.2,1.1-0.4,1.4c-0.3,0.4-0.6,0.5-1,0.5h-1.3c-1,0-1-0.5-1-1v-2.9h-1.4L193.3,97.6
						L193.3,97.6z M195.4,92.2h-2.8V93h2.8V92.2z M195.4,93.9h-2.8v0.8h2.8V93.9z M195.4,95.5h-2.8v0.8h2.8V95.5z"/>
					<path d="M207.2,91c0.5,0.1,0.5,0.1,0.5,0.2c0,0.1,0,0.1-0.1,0.2c-0.1,0.1-0.1,0.1-0.1,1.4c1.2-0.1,2.3-0.1,3.5-0.3v1.3
						c-0.4,0-1.8,0-2,0c-0.5,0-0.9,0-1.4,0.1l0,1.6c0.2,0.4,0.5,0.8,0.5,1.5c0,0.7-0.1,1.5-0.5,2.4c-0.5,1.1-1,1.6-1.7,2.2l-1.3-0.6
						c1.5-0.9,1.8-1.6,2.1-2.4c-0.2,0.2-0.4,0.5-1.1,0.5c-0.8,0-1.7-0.7-1.7-2c0-1.3,0.9-2.3,2.1-2.3c0.2,0,0.3,0,0.4,0V94
						c-3.4,0.3-4.1,0.4-4.5,0.5l-0.1-1.4c1.2,0,2,0,4.6-0.2c0-0.8-0.1-1.2-0.2-2L207.2,91L207.2,91z M204.9,97c0,0.2,0,1,0.7,1
						c0.3,0,0.8-0.2,0.8-1c0-0.8-0.3-1-0.7-1S204.9,96.4,204.9,97z"/>
					<path d="M216.3,97.4c1.7-1.3,3.2-2.8,4.4-4.5c-1.2,0.2-1.6,0.2-2.9,0.3l-0.2-1.4c0.3,0,0.9,0.1,1.3,0.1c0.7,0,2.8-0.2,3.9-0.6
						l0.6,1c-0.7,0.5-1.4,1.3-2.7,2.7c0.2-0.1,0.5-0.1,1-0.1c2.4,0,2.9,1.8,2.9,2.8c0,2.1-1.7,3.5-3.9,3.5c-0.8,0-2.5-0.2-2.5-1.8
						c0-0.8,0.5-1.6,1.9-1.6c1.6,0,2.1,1.2,2.3,1.6c0.4-0.3,0.9-0.7,0.9-1.7c0-0.7-0.3-1.7-2-1.7c-1.7,0-2.6,1-3.9,2.5
						C217.4,98.4,216.3,97.4,216.3,97.4z M220.1,98.7c-0.4,0-0.7,0.3-0.7,0.6c0,0.5,0.6,0.7,1.2,0.7c0.3,0,0.6-0.1,0.8-0.1
						C221.2,99.5,220.9,98.7,220.1,98.7L220.1,98.7z"/>
					<path d="M231.7,95.5v3c0.2-0.1,0.7-0.2,1-0.3l0,1c-0.4,0.1-2.1,0.7-2.3,0.8c-0.1,0-0.1,0.1-0.2,0.2c0,0.1-0.1,0.1-0.1,0.1
						c-0.1,0-0.1-0.1-0.2-0.3l-0.1-1.1c0.2,0,0.5-0.1,0.6-0.1v-7.3l1.2,0.1c0.9-0.1,2.1-0.3,3.1-0.7l0.6,0.8
						c0.1,0.2,0.2,0.2,0.2,0.3c0,0.1-0.1,0.1-0.1,0.1c-0.1,0-0.3,0-0.4,0c-0.2,0.1-0.8,0.3-1.1,0.3c-0.1,0.9-0.1,1.3-0.1,2h1.6v1
						h-1.5c0,0.9,0.3,2,0.5,2.9c0.1,0.2,0.2,0.5,0.3,0.5c0.2,0,0.3-0.4,0.3-0.7l0.9,0.4v-7.4h3.6l0.8,0.5c-0.8,1.6-1.3,2.6-1.6,3.2
						c0.5,0.6,1.4,1.6,1.4,3.3c0,1.7-1.2,2-2.2,2.1l-0.6-1.2c0.9,0,1.6,0,1.6-1.1c0-1.1-0.5-2-1.5-2.9c0.4-0.9,0.8-1.5,1.3-2.8h-1.6
						v9.1H236v-2.2c-0.2,0.7-0.5,1.5-1.1,1.5c-0.5,0-0.8-0.4-0.9-0.6v0.9h-3.2V100h3.1c-0.8-1.2-1.1-3.5-1.1-4.5H231.7L231.7,95.5z
						 M232.7,94.5c0-0.3,0-1.1,0-1.8c-0.3,0-0.6,0-1.1,0.1v1.8H232.7z"/>
					<path d="M249.6,99.5c0,0.4,0.1,0.6,0.7,0.6h2.4c0.4,0,0.8-0.1,0.8-1.5l1.2,0.5c-0.1,2-1,2.2-1.7,2.2h-3.2
						c-0.5,0-1.4-0.1-1.4-1.1V98l-4,0.4l-0.1-1.2l4.1-0.4v-1.1c-0.5,0.1-1,0.2-2.1,0.3l-0.6-1.2c1.4-0.1,4-0.4,5.9-1.5l0.8,0.8
						c0.1,0.1,0.1,0.1,0.1,0.2s0,0.1-0.1,0.1c-0.2,0-0.3,0-0.4,0c-1.3,0.5-1.4,0.6-2.4,0.8v1.3l4.7-0.5l0.1,1.2l-4.8,0.5L249.6,99.5
						L249.6,99.5z M254.3,92.1v2.5h-1.3v-1.4h-7.4v1.6h-1.3v-2.7h4.3V91l1.4,0c0.1,0,0.2,0,0.2,0.1c0,0.1,0,0.1-0.2,0.2
						c-0.1,0.1-0.1,0.1-0.1,0.3v0.5L254.3,92.1L254.3,92.1z"/>
				</g>
				<g>
					<path d="M0,62.2h2.3l1.5,11.4h0l1.5-11.4h2.1L5.3,76.9H2.2C2.2,76.9,0,62.2,0,62.2z"/>
					<path d="M12.8,62.2h2.3v14.7h-2.3V62.2z"/>
					<path d="M21,62.2h2.9l2.2,8.8h0v-8.8h2.1v14.7h-2.4l-2.8-10.7h0v10.7H21V62.2z"/>
					<path d="M36,64.3h-2.4v-2.1h7.1v2.1h-2.4v12.6H36V64.3z"/>
					<path d="M46.8,62.2h3.1l2.4,14.7H50l-0.4-2.9v0H47l-0.4,2.9h-2.1C44.4,76.9,46.8,62.2,46.8,62.2z M49.3,72l-1-7.3h0l-1,7.3
						C47.2,72,49.3,72,49.3,72z"/>
					<path d="M57.4,73.4v-7.7c0-2.3,1.2-3.7,3.4-3.7c2.3,0,3.4,1.3,3.4,3.7v1.3h-2.2v-1.4c0-1-0.5-1.4-1.2-1.4s-1.2,0.4-1.2,1.4v8
						c0,1,0.5,1.4,1.2,1.4s1.2-0.4,1.2-1.4v-2.9h-1.2v-2.1h3.3v4.8c0,2.3-1.2,3.7-3.4,3.7C58.6,77.1,57.4,75.7,57.4,73.4z"/>
					<path d="M69.9,62.2h6.3v2.1h-4v3.9h3.2v2.1h-3.2v4.5h4v2.1h-6.3V62.2z"/>
					<path d="M89.3,62.2h2.9l2.2,8.8h0v-8.8h2.1v14.7h-2.4l-2.8-10.7h0v10.7h-2.1V62.2z"/>
					<path d="M104.2,62.2h3.1l2.4,14.7h-2.3l-0.4-2.9v0h-2.6l-0.4,2.9h-2.1L104.2,62.2z M106.7,72l-1-7.3h0l-1,7.3H106.7z"/>
					<path d="M115.8,64.3h-2.4v-2.1h7.1v2.1h-2.4v12.6h-2.3V64.3z"/>
					<path d="M125.8,73.4V62.2h2.3v11.4c0,1,0.4,1.4,1.2,1.4c0.7,0,1.2-0.4,1.2-1.4V62.2h2.2v11.2c0,2.3-1.2,3.7-3.4,3.7
						C126.9,77.1,125.8,75.7,125.8,73.4z"/>
					<path d="M138.5,62.2h3.4c2.4,0,3.4,1.1,3.4,3.4v0.9c0,1.5-0.5,2.5-1.5,2.9v0c1.2,0.4,1.5,1.4,1.5,3.1v2.6c0,0.7,0,1.2,0.3,1.8
						h-2.3c-0.1-0.4-0.2-0.6-0.2-1.8v-2.7c0-1.4-0.4-1.8-1.4-1.8h-0.8v6.3h-2.3L138.5,62.2L138.5,62.2z M141.6,68.5
						c0.9,0,1.4-0.4,1.4-1.6v-1.1c0-1-0.4-1.5-1.2-1.5h-1v4.2H141.6z"/>
					<path d="M152.9,62.2h3.1l2.4,14.7h-2.3l-0.4-2.9v0H153l-0.4,2.9h-2.1L152.9,62.2z M155.4,72l-1-7.3h0l-1,7.3H155.4z"/>
					<path d="M163.7,62.2h2.3v12.6h3.8v2.1h-6.1V62.2z"/>
					<path d="M182.6,62.2h3.3l1.5,10.5h0l1.5-10.5h3.3v14.7H190V65.7h0l-1.7,11.1h-1.9l-1.7-11.1h0v11.1h-2L182.6,62.2L182.6,62.2z"
						/>
					<path d="M197.9,73.4v-7.7c0-2.3,1.2-3.7,3.5-3.7s3.5,1.3,3.5,3.7v7.7c0,2.3-1.2,3.7-3.5,3.7S197.9,75.7,197.9,73.4z
						 M202.6,73.5v-8c0-1-0.5-1.4-1.2-1.4s-1.2,0.4-1.2,1.4v8c0,1,0.5,1.4,1.2,1.4S202.6,74.6,202.6,73.5z"/>
					<path d="M210.7,62.2h3.5c2.3,0,3.4,1.3,3.4,3.6v7.4c0,2.3-1.1,3.6-3.4,3.6h-3.5C210.7,76.9,210.7,62.2,210.7,62.2z M214.1,74.8
						c0.7,0,1.2-0.4,1.2-1.4v-7.6c0-1-0.4-1.4-1.2-1.4H213v10.5H214.1z"/>
					<path d="M223.4,62.2h6.3v2.1h-4v3.9h3.2v2.1h-3.2v4.5h4v2.1h-6.3V62.2z"/>
					<path d="M235.2,62.2h3.4c2.4,0,3.4,1.1,3.4,3.4v0.9c0,1.5-0.5,2.5-1.5,2.9v0c1.2,0.4,1.5,1.4,1.5,3.1v2.6c0,0.7,0,1.2,0.3,1.8
						h-2.3c-0.1-0.4-0.2-0.6-0.2-1.8v-2.7c0-1.4-0.4-1.8-1.4-1.8h-0.8v6.3h-2.3V62.2z M238.3,68.5c0.9,0,1.4-0.4,1.4-1.6v-1.1
						c0-1-0.4-1.5-1.2-1.5h-1v4.2H238.3z"/>
					<path d="M247.8,62.2h2.9l2.2,8.8h0v-8.8h2.1v14.7h-2.4l-2.8-10.7h0v10.7h-2.1V62.2z"/>
				</g>
				<line class="st1" x1="66.7" y1="80.2" x2="88.2" y2="59.2"/>
				<line class="st1" x1="159.6" y1="80.2" x2="181.1" y2="59.2"/>
				<line class="st1" x1="244.2" y1="79.7" x2="265.7" y2="58.7"/>
			</g>
		</g>
		<rect x="-35" y="-8.3" class="st2" width="325" height="110"/>
	</g>
</g>
</svg>
