<?xml version="1.0" encoding="utf-8"?>
<!-- Generator: Adobe Illustrator 27.9.1, SVG Export Plug-In . SVG Version: 6.00 Build 0)  -->
<svg version="1.1" id="レイヤー_1" xmlns="http://www.w3.org/2000/svg" xmlns:xlink="http://www.w3.org/1999/xlink" x="0px"
	 y="0px" viewBox="0 0 757 110" style="enable-background:new 0 0 757 110;" xml:space="preserve">
<style type="text/css">
	.st0{opacity:0.39;fill:url(#SVGID_1_);}
	.st1{fill:#D37531;}
	.st2{fill:#857E6B;}
	.st3{fill:#3B3840;}
	.st4{opacity:0.38;fill:url(#SVGID_00000074431936111759666770000009827584090184285861_);}
	.st5{fill:#231815;}
	.st6{fill:none;stroke:#000000;stroke-width:1.0627;stroke-miterlimit:10;}
</style>
<g>
	<linearGradient id="SVGID_1_" gradientUnits="userSpaceOnUse" x1="73.8565" y1="94.1207" x2="39.2411" y2="-0.9843">
		<stop  offset="0" style="stop-color:#595757"/>
		<stop  offset="0.4" style="stop-color:#595757;stop-opacity:0"/>
	</linearGradient>
	<path class="st0" d="M15.65,7.6h22.12v77.93H15.65V7.6z M45.49,85.53h22.12V7.6H45.49V85.53z M75.33,85.53h22.12V7.6H75.33V85.53z"
		/>
	<g>
		<rect x="14.13" y="5.95" class="st1" width="22.12" height="77.93"/>
		<rect x="43.97" y="5.95" class="st2" width="22.12" height="77.93"/>
		<rect x="73.81" y="5.95" class="st3" width="22.12" height="77.93"/>
	</g>
	
		<linearGradient id="SVGID_00000057150461626873970540000013102433755654103954_" gradientUnits="userSpaceOnUse" x1="72.3404" y1="92.4729" x2="37.725" y2="-2.6321">
		<stop  offset="0" style="stop-color:#A38A77"/>
		<stop  offset="0.4" style="stop-color:#A38A77;stop-opacity:0"/>
	</linearGradient>
	<path style="opacity:0.38;fill:url(#SVGID_00000057150461626873970540000013102433755654103954_);" d="M14.13,5.95h22.12v77.93
		H14.13V5.95z M43.97,83.89h22.12V5.95H43.97V83.89z M73.81,83.89h22.12V5.95H73.81V83.89z"/>
	<g>
		<path class="st5" d="M13.26,99.9V99.3h1.58v0.73c0,0.76,0.33,1.03,0.86,1.03c0.53,0,0.86-0.27,0.86-1.06
			c0-0.88-0.33-1.44-1.43-2.4c-1.4-1.23-1.85-2.09-1.85-3.31c0-1.67,0.86-2.64,2.49-2.64c1.62,0,2.43,0.97,2.43,2.67v0.44h-1.58
			v-0.55c0-0.76-0.3-1.05-0.83-1.05s-0.83,0.29-0.83,1.02c0,0.77,0.35,1.33,1.44,2.29c1.4,1.23,1.84,2.08,1.84,3.4
			c0,1.73-0.88,2.7-2.52,2.7C14.08,102.57,13.26,101.6,13.26,99.9z"/>
		<path class="st5" d="M22.01,93.32h-1.74V91.8h5.16v1.52h-1.74v9.1h-1.67V93.32z"/>
		<path class="st5" d="M29.28,97.9l-2.02-6.1h1.77l1.14,3.9h0.03l1.14-3.9h1.62l-2.02,6.1v4.52h-1.67V97.9z"/>
		<path class="st5" d="M35.24,91.8h1.67v9.1h2.75v1.52h-4.41V91.8z"/>
		<path class="st5" d="M41.97,91.8h4.55v1.52h-2.88v2.81h2.29v1.52h-2.29v3.26h2.88v1.52h-4.55V91.8z"/>
		<path class="st5" d="M52.94,91.8h1.67v4.32h1.79V91.8h1.67v10.62H56.4v-4.78h-1.79v4.78h-1.67V91.8z"/>
		<path class="st5" d="M60.71,99.9v-5.58c0-1.7,0.9-2.67,2.53-2.67c1.64,0,2.53,0.97,2.53,2.67v5.58c0,1.7-0.9,2.67-2.53,2.67
			C61.6,102.57,60.71,101.6,60.71,99.9z M64.11,100.01v-5.79c0-0.76-0.33-1.05-0.86-1.05c-0.53,0-0.86,0.29-0.86,1.05v5.79
			c0,0.76,0.33,1.05,0.86,1.05C63.77,101.06,64.11,100.77,64.11,100.01z"/>
		<path class="st5" d="M68.35,99.9v-8.1h1.67v8.22c0,0.76,0.32,1.03,0.85,1.03s0.85-0.27,0.85-1.03V91.8h1.61v8.1
			c0,1.7-0.85,2.67-2.49,2.67C69.2,102.57,68.35,101.6,68.35,99.9z"/>
		<path class="st5" d="M75.74,99.9V99.3h1.58v0.73c0,0.76,0.33,1.03,0.86,1.03c0.53,0,0.86-0.27,0.86-1.06
			c0-0.88-0.33-1.44-1.43-2.4c-1.4-1.23-1.85-2.09-1.85-3.31c0-1.67,0.86-2.64,2.49-2.64c1.62,0,2.43,0.97,2.43,2.67v0.44h-1.58
			v-0.55c0-0.76-0.3-1.05-0.83-1.05s-0.83,0.29-0.83,1.02c0,0.77,0.35,1.33,1.44,2.29c1.4,1.23,1.84,2.08,1.84,3.4
			c0,1.73-0.88,2.7-2.52,2.7C76.56,102.57,75.74,101.6,75.74,99.9z"/>
		<path class="st5" d="M83.19,91.8h4.55v1.52h-2.88v2.81h2.29v1.52h-2.29v3.26h2.88v1.52h-4.55V91.8z"/>
		<path class="st5" d="M89.93,99.9V99.3h1.58v0.73c0,0.76,0.33,1.03,0.86,1.03c0.53,0,0.86-0.27,0.86-1.06
			c0-0.88-0.33-1.44-1.43-2.4c-1.4-1.23-1.85-2.09-1.85-3.31c0-1.67,0.86-2.64,2.49-2.64c1.62,0,2.43,0.97,2.43,2.67v0.44h-1.58
			v-0.55c0-0.76-0.3-1.05-0.83-1.05s-0.83,0.29-0.83,1.02c0,0.77,0.35,1.33,1.44,2.29c1.4,1.23,1.84,2.08,1.84,3.4
			c0,1.73-0.88,2.7-2.52,2.7C90.75,102.57,89.93,101.6,89.93,99.9z"/>
	</g>
</g>
<g>
	<path d="M152.01,90.41l-0.22-0.68c-1.12,0.76-2.02,1.2-3.02,1.2c-1.76,0-2.4-1.56-2.4-2.76c0-1.62,0.86-4.38,4.58-6.3
		c0.04-0.9,0.1-1.38,0.16-1.9c-0.4,0.02-0.86,0.04-1.5,0.04c-0.66,0-1.22-0.04-1.56-0.06l-0.5-2.2c0.52,0.1,1.4,0.28,2.66,0.28
		c0.56,0,0.92-0.04,1.22-0.06c0.34-1.66,0.5-2.36,0.76-3.52l2.04,0.66c0.4,0.14,0.54,0.2,0.54,0.34c0,0.16-0.04,0.18-0.36,0.3
		c-0.22,0.08-0.66,1.56-0.78,1.98c1.92-0.32,3.24-0.56,4.94-1.3v2.3c-2.04,0.54-3.2,0.74-5.4,1.04c-0.14,0.8-0.16,0.88-0.22,1.4
		c0.24-0.04,0.72-0.1,1.52-0.1c0.36,0,0.56,0,0.76,0.02c0.06-0.16,0.28-0.84,0.32-0.98l2.16,0.54c-0.1,0.28-0.14,0.36-0.32,0.84
		c0.88,0.34,3.56,1.34,3.56,4.62c0,1.82-1.08,4.82-5.7,6l-1.3-1.82c0.98-0.2,4.76-1,4.76-4.14c0-1.98-1.14-2.5-1.98-2.9
		c-0.96,2.04-1.7,3.4-3.12,4.9c0.24,0.74,0.34,0.98,0.42,1.22L152.01,90.41z M150.91,83.99c-1.84,1.26-2.46,3.02-2.46,3.94
		c0,0.64,0.32,0.96,0.74,0.96c0.66,0,1.52-0.76,2.1-1.26C151.07,86.79,150.91,84.83,150.91,83.99z M154.59,82.83
		c-0.66-0.04-1.12,0-1.8,0.28c-0.02,0.88,0.14,2.2,0.2,2.76C153.27,85.47,153.81,84.69,154.59,82.83z"/>
	<path d="M177.53,75.01c0.22,0.08,0.64,0.22,0.64,0.4c0,0.06-0.34,0.28-0.44,0.34c-0.18,0.12-0.7,1.66-0.82,2.02
		c1.52-0.3,2.1-0.48,2.58-0.72l-0.14,2.26c-0.82,0.22-1.74,0.4-3.16,0.56c-1.42,3.82-4.04,8.22-4.16,8.42l-2.22-1.04
		c1.86-2.08,3.1-4.6,4.12-7.22c-0.82,0.04-1.9,0.08-2.72,0.1l-0.1-2.12c0.44,0.04,1.14,0.12,1.9,0.12c0.56,0,1.08-0.04,1.64-0.08
		c0.38-1.18,0.76-2.4,1.02-3.66L177.53,75.01z M182.67,91.15c-0.66-0.66-1.22-1.1-1.9-1.56c-0.16,0.84-0.54,2.36-3.32,2.36
		c-2.22,0-4-1.12-4-2.92c0-1.56,1.4-2.82,3.38-2.82c0.86,0,1.48,0.14,1.86,0.24c-0.02-0.44-0.08-2.36-0.08-2.76
		c0-1.34,0.4-1.84,1-2.36l1.98,1.2c-0.94,0.78-0.94,1.1-0.94,1.66c0,0.48,0.08,2.58,0.08,3c1.44,0.72,2.4,1.42,3.26,2.16
		L182.67,91.15z M176.69,88.05c-1.16,0-1.28,0.74-1.28,0.96c0,0.86,1.2,1.06,1.76,1.06c1.44,0,1.5-0.98,1.54-1.54
		C177.83,88.21,177.31,88.05,176.69,88.05z M184.03,82.47c-1.18-1.16-3.06-1.98-4.38-2.42l1.08-1.58c2.12,0.54,3.56,1.52,4.5,2.28
		L184.03,82.47z"/>
	<path d="M200.83,75.19c0.16,0.04,0.62,0.18,0.62,0.32c0,0.04,0,0.14-0.06,0.2c-0.06,0.06-0.34,0.22-0.38,0.28
		c-0.06,0.08-0.52,2.02-0.6,2.32c2.06-0.5,2.72-0.9,3.22-1.2l0.08,2.22c-1.2,0.54-2.36,0.82-3.9,1.12c-1.62,5.54-3.04,8.5-4.1,10.7
		l-2.28-0.86c2.42-3.62,3.64-7.82,4.12-9.54c-1.14,0.1-1.78,0.14-3.06,0.16l-0.1-2.26c0.48,0.08,1.04,0.16,1.94,0.16
		c0.76,0,1.36-0.06,1.74-0.1c0.52-2.22,0.64-3.04,0.64-4.04L200.83,75.19z M208.49,90.85c-1.02,0.22-2.58,0.22-3.24,0.22
		c-3.72,0-5.3-0.6-5.3-2.76c0-0.6,0.08-1.26,0.22-1.84l2.06,0.5c-0.08,0.18-0.18,0.4-0.18,0.74c0,0.76,0.42,1.24,2.64,1.24
		c2,0,3.1-0.3,3.7-0.48L208.49,90.85z M208.29,83.33c-1-0.2-2.2-0.4-3.24-0.4c-0.28,0-1.58,0.02-2.74,0.3v-2.18
		c0.52-0.02,2.84-0.1,3.3-0.1c1.82,0,2.34,0.14,2.68,0.22V83.33z"/>
	<path d="M225.31,89.23c1.26-0.36,5.26-1.46,5.26-6.02c0-4.52-3.8-5.08-4.98-5.26c-0.32,2.36-0.8,5.72-2.48,9.5
		c-0.2,0.46-1.16,2.64-2.34,2.64c-1.24,0-4.12-1.76-4.12-5.76c0-4.4,3.54-8.28,8.62-8.28c4.62,0,7.54,2.98,7.54,7.18
		c0,5.6-4.5,7.28-6,7.84L225.31,89.23z M218.63,84.33c0,1.78,1.02,3.08,1.72,3.08c0.44,0,0.8-0.82,1.06-1.42
		c1.06-2.48,1.72-5.14,1.92-7.82C219.13,79.61,218.63,82.95,218.63,84.33z"/>
	<path d="M241.55,82.13v-2.02h10.94c0.3,0,0.56,0,1.2-0.62l2,1.9c-0.9,0.6-1.08,0.92-1.38,1.7c-1.88,4.76-4.62,7.18-8.7,8.78
		l-1.92-1.66c4.98-1.72,7.2-3.92,8.5-8.08H241.55z M252.99,75.75v2.02h-9.54v-2.02H252.99z"/>
	<path d="M271.33,82.53c-2.04,1.38-3.54,2.22-5.16,2.94l-1.74-1.88c6.28-2.32,10.14-6.56,11.88-8.72l1.5,1.3
		c0.56,0.5,0.64,0.54,0.64,0.72s-0.06,0.18-0.62,0.18c-0.18,0-0.26,0.1-0.98,0.88c-0.96,1.02-2.06,1.96-3.2,2.88v10.58h-2.32V82.53z
		"/>
	<path d="M289.35,78.99v-2.08h11.04c0.26,0,0.6,0,0.98-0.4l1.86,1.84c-0.56,0.4-0.56,0.4-1.42,2.86c-0.78,2.26-2.5,6.84-9.02,10.08
		l-1.84-1.78c5.86-2.56,7.98-6.08,9.18-10.52H289.35z"/>
	<path d="M325.59,90.53c-1.14-1.66-2.64-3.4-5-5.32c-1.32,1.52-3.02,3.5-7.02,5.34l-1.7-1.68c2.2-0.96,7.26-3.26,10-10.02h-7.76
		v-2.14h8.12c0.44,0,0.88,0,1.72-0.6l1.56,1.92c-0.92,0.4-1.04,0.62-1.28,1.18c-0.08,0.22-0.7,1.72-2.3,4.18
		c3.2,2.4,4.7,4.42,5.36,5.32L325.59,90.53z"/>
	<path d="M337.37,90.03c3.28-1.08,5.3-2.8,6.74-4.44c-1.48-1.12-2.62-1.8-3.68-2.28l1.26-1.48c1.18,0.52,2.34,1.22,3.64,2.1
		c0.5-0.8,1.28-2.12,1.86-3.96h-5.42c-0.56,0.86-1.92,2.84-3.78,4.12l-1.86-1.26c3.6-2.52,5.06-5.68,5.86-8.02l1.92,0.76
		c0.54,0.22,0.54,0.3,0.54,0.4c0,0.14-0.14,0.2-0.28,0.22c-0.24,0.06-0.28,0.1-0.56,0.64c-0.22,0.44-0.42,0.82-0.64,1.24h4.52
		c0.42,0,0.84-0.28,1.18-0.56l1.72,1.54c-0.72,0.62-0.82,0.82-1.08,1.5c-0.94,2.52-1.92,4.04-2.32,4.66c0.56,0.4,1.24,1,1.7,1.46
		l-1.52,1.84c-0.18-0.22-0.94-1.14-1.46-1.56c-1,1.18-2.78,3.22-6.76,4.84L337.37,90.03z"/>
	<path d="M366.13,82.53c-2.04,1.38-3.54,2.22-5.16,2.94l-1.74-1.88c6.28-2.32,10.14-6.56,11.88-8.72l1.5,1.3
		c0.56,0.5,0.64,0.54,0.64,0.72s-0.06,0.18-0.62,0.18c-0.18,0-0.26,0.1-0.98,0.88c-0.96,1.02-2.06,1.96-3.2,2.88v10.58h-2.32V82.53z
		"/>
	<path d="M381.75,88.23c3.58-2.5,4.18-4.64,4.18-9.22c0-1.22-0.04-1.96-0.06-2.56l2.12,0.28c0.64,0.08,0.64,0.14,0.64,0.26
		c0,0.14-0.14,0.28-0.24,0.36c-0.22,0.2-0.26,0.22-0.26,0.8c-0.02,5.12-0.04,8.06-4.68,11.8L381.75,88.23z M390.59,76.41l2.06,0.28
		c0.64,0.08,0.72,0.08,0.72,0.26c0,0.14-0.06,0.18-0.34,0.38c-0.3,0.22-0.3,0.32-0.3,0.48v9.08c1.62-1.08,3.64-2.64,5.4-5.58
		l1.4,1.8c-0.72,1.04-2.88,4.16-7.6,6.94l-1.34-1.16V76.41z"/>
	<path d="M421.51,82.83c-0.64,0.24-3.48,1.36-4.06,1.58c0.08,1.32,0.18,2.72,0.2,4.02h-2.26c0.1-2.6,0.1-2.66,0.1-3.16
		c-0.72,0.36-2.8,1.38-2.8,2.96c0,1.44,1.66,1.58,2.84,1.58c0.72,0,2.46-0.08,5.16-0.7v2.16c-1.2,0.2-2.64,0.42-4.52,0.42
		c-2.28,0-5.56-0.26-5.56-3.06c0-2.84,2.94-4.3,4.78-5.24c-0.14-0.48-0.4-1.42-1.58-1.42c-1.84,0-3.48,2.32-4.4,3.76l-1.84-1.2
		c2.3-2.3,3.46-4.32,3.98-5.38c-0.26,0.02-1.88,0.12-2.82,0.08l-0.28-2.08c0.88,0.1,1.72,0.12,2.6,0.12c0.5,0,0.56,0,1.38-0.02
		c0.3-0.82,0.64-1.76,0.82-2.66l1.94,0.34c0.72,0.12,0.72,0.2,0.72,0.3c0,0.1-0.04,0.14-0.44,0.42c-0.08,0.04-0.6,1.18-0.68,1.36
		c1.06-0.12,3.06-0.52,4.12-1l-0.24,2.14c-1.54,0.38-3.88,0.66-4.82,0.76c-0.38,0.76-0.68,1.24-1.04,1.74
		c0.32-0.12,0.88-0.34,1.74-0.34c1.86,0,2.4,1.1,2.7,2.24c0.5-0.2,2.16-0.9,3.5-1.86L421.51,82.83z"/>
	<path d="M439.97,89.55c-1.62,0.48-3.36,1.02-7.38,2.04c-0.34,0.08-0.56,0.18-0.64,0.3c-0.18,0.26-0.26,0.34-0.38,0.34
		c-0.24,0-0.28-0.14-0.4-0.48l-0.7-2.02c1.3-0.16,1.92-0.26,3.36-0.52v-2.14c-1.32,0.66-2.02,0.96-3.34,1.46l-1.36-1.72
		c3.74-1.26,5.32-2.1,7.06-3.66h-6.74v-1.78h7.48v-1.1h-4.96v-1.62h4.96v-1h-6.92v-1.78h6.92v-1.46l2.02,0.12
		c0.32,0.02,0.56,0.1,0.56,0.24c0,0.06-0.08,0.16-0.12,0.2c-0.24,0.26-0.34,0.38-0.34,0.56v0.34h7.28v1.78h-7.28v1h5.32v1.62h-5.32
		v1.1h7.78v1.78h-7.5c0.66,1.34,1.24,2.12,1.92,2.96c1.32-1.12,1.92-1.64,2.98-2.86l1.22,1.18c0.12,0.12,0.3,0.3,0.3,0.44
		c0,0.14-0.1,0.16-0.38,0.16c-0.06,0-0.34,0.22-0.42,0.28c-0.62,0.48-1.86,1.4-2.58,1.92c1.3,1.14,2.52,2.02,4.5,2.72l-1.58,1.78
		c-3.92-2.14-4.88-3.28-7.44-7.3c-0.72,0.6-1.22,0.98-1.86,1.4v2.92c1.12-0.26,2.36-0.6,3.88-1.08L439.97,89.55z"/>
	<path d="M457.49,86.39c0.44-0.1,1-0.26,2.5-0.84l0.1,1.72c-2.54,1.02-3.62,1.3-5.7,1.82c-0.36,0.1-0.4,0.14-0.5,0.36
		c-0.08,0.1-0.18,0.28-0.36,0.28c-0.24,0-0.28-0.22-0.32-0.42l-0.38-1.82c0.32-0.06,1.44-0.26,2.66-0.56v-4.12h-2.2v-1.72h2.2v-3.56
		h-2.44v-1.72h6.88v1.72h-2.44v3.56h2.04v1.72h-2.04V86.39z M463.89,85.57c0.48,0.2,0.52,0.22,0.52,0.38c0,0.2-0.06,0.22-0.44,0.32
		c-0.22,0.06-0.22,0.1-0.36,0.54c-0.68,2.34-1.64,3.74-4.96,5.04l-1.44-1.56c3.76-1.08,4.4-2.66,4.76-5.24h-1.18v-9.92h8.58v9.92
		h-2.42v3.96c0,0.38,0.26,0.56,0.66,0.56h0.64c0.84,0,0.96-0.86,1.14-2.06l1.72,0.82c-0.04,0.24-0.36,1.8-0.74,2.36
		c-0.44,0.64-0.98,0.78-1.58,0.78h-2.14c-1.6,0-1.7-0.86-1.7-1.68v-4.74h-2.26L463.89,85.57z M467.41,76.73h-4.66v1.26h4.66V76.73z
		 M467.41,79.43h-4.66v1.32h4.66V79.43z M467.41,82.19h-4.66v1.36h4.66V82.19z"/>
	<path d="M486.91,74.73c0.78,0.1,0.88,0.12,0.88,0.38c0,0.1-0.06,0.16-0.2,0.26c-0.22,0.16-0.22,0.24-0.24,2.34
		c1.92-0.12,3.8-0.24,5.72-0.42v2.2c-0.7-0.02-2.92-0.06-3.36-0.06c-0.82,0-1.52,0.04-2.34,0.1l0.04,2.56
		c0.38,0.58,0.76,1.24,0.76,2.54c0,1.14-0.22,2.48-0.9,4c-0.8,1.78-1.72,2.7-2.82,3.66l-2.22-1.04c2.4-1.52,2.92-2.72,3.46-3.98
		c-0.3,0.36-0.7,0.82-1.76,0.82c-1.4,0-2.76-1.1-2.76-3.36c0-2.22,1.42-3.78,3.42-3.78c0.32,0,0.54,0.04,0.68,0.06v-1.34
		c-5.64,0.46-6.8,0.68-7.46,0.8l-0.24-2.36c1.92-0.02,3.34-0.08,7.64-0.3c-0.08-1.28-0.14-2.02-0.38-3.34L486.91,74.73z
		 M483.19,84.61c0,0.3,0.06,1.62,1.1,1.62c0.48,0,1.34-0.36,1.34-1.7c0-1.28-0.48-1.64-1.16-1.64
		C483.79,82.89,483.19,83.65,483.19,84.61z"/>
	<path d="M501.99,85.33c2.74-2.14,5.26-4.56,7.26-7.4c-2.02,0.26-2.64,0.32-4.76,0.46l-0.34-2.3c0.56,0.04,1.52,0.1,2.08,0.1
		c1.14,0,4.68-0.3,6.44-1.04l0.92,1.58c-1.22,0.9-2.34,2.16-4.42,4.54c0.36-0.1,0.9-0.22,1.66-0.22c3.98,0,4.74,2.94,4.74,4.62
		c0,3.46-2.8,5.72-6.42,5.72c-1.34,0-4.1-0.34-4.1-2.9c0-1.3,0.88-2.7,3.12-2.7c2.64,0,3.54,2,3.82,2.62
		c0.62-0.52,1.44-1.22,1.44-2.76c0-1.14-0.46-2.8-3.22-2.8s-4.22,1.62-6.52,4.14L501.99,85.33z M508.15,87.49
		c-0.64,0-1.16,0.44-1.16,0.94c0,0.76,1.06,1.1,1.92,1.1c0.54,0,1-0.12,1.24-0.2C509.97,88.73,509.61,87.49,508.15,87.49z"/>
	<path d="M527.33,82.13v5c0.38-0.12,1.18-0.38,1.62-0.56l0.06,1.64c-0.6,0.24-3.42,1.22-3.76,1.34c-0.16,0.06-0.24,0.18-0.36,0.4
		c-0.06,0.12-0.14,0.18-0.24,0.18c-0.16,0-0.24-0.24-0.26-0.5l-0.12-1.8c0.32-0.06,0.86-0.16,1.06-0.22v-12l2,0.14
		c1.5-0.1,3.54-0.52,5.14-1.22l1.04,1.3c0.22,0.26,0.28,0.38,0.28,0.52c0,0.12-0.1,0.16-0.24,0.16c-0.1,0-0.48,0.02-0.62,0.02
		c-0.34,0.14-1.4,0.44-1.78,0.54c-0.1,1.46-0.12,2.08-0.12,3.36h2.58v1.7h-2.52c0.08,1.54,0.44,3.28,0.9,4.8
		c0.1,0.32,0.26,0.8,0.52,0.8c0.4,0,0.46-0.64,0.5-1.22l1.54,0.74V75.03h6l1.26,0.86c-1.28,2.68-2.1,4.22-2.64,5.22
		c0.84,0.94,2.34,2.58,2.34,5.5c0,2.88-2.04,3.22-3.68,3.4l-0.96-1.94c1.48-0.02,2.56-0.08,2.56-1.8c0-1.74-0.88-3.38-2.46-4.84
		c0.72-1.44,1.26-2.54,2.14-4.58h-2.58v15.06h-1.98v-3.6c-0.34,1.12-0.78,2.54-1.86,2.54c-0.8,0-1.26-0.62-1.5-0.94v1.5h-5.24v-1.78
		h5.04c-1.28-2.04-1.76-5.76-1.84-7.5H527.33z M529.09,80.43c-0.02-0.42-0.04-1.82,0-3c-0.48,0.06-0.96,0.08-1.76,0.1v2.9H529.09z"
		/>
	<path d="M557.01,88.69c0,0.64,0.14,1.04,1.12,1.04h3.9c0.68,0,1.34-0.1,1.4-2.44l2,0.86c-0.14,3.22-1.66,3.58-2.84,3.58h-5.3
		c-0.86,0-2.38-0.2-2.38-1.86v-3.64l-6.58,0.72l-0.18-1.94l6.76-0.72v-1.82c-0.84,0.16-1.64,0.32-3.42,0.56l-0.96-1.94
		c2.28-0.16,6.56-0.6,9.7-2.4l1.32,1.36c0.16,0.18,0.22,0.22,0.22,0.32c0,0.1-0.08,0.12-0.16,0.12c-0.38,0-0.54,0-0.68,0.06
		c-2.08,0.86-2.3,0.96-3.92,1.4v2.12l7.76-0.82l0.22,1.94l-7.98,0.82V88.69z M564.75,76.59v4.14h-2.08v-2.3h-12.28v2.68h-2.08v-4.52
		h7.14v-1.96l2.24,0.06c0.18,0,0.38,0,0.38,0.18c0,0.1-0.02,0.1-0.28,0.4c-0.12,0.14-0.12,0.22-0.12,0.42v0.9H564.75z"/>
</g>
<g>
	<path d="M144.74,27.11h3.84l2.49,18.79h0.07l2.49-18.79h3.5l-3.67,24.23h-5.05L144.74,27.11z"/>
	<path d="M165.88,27.11h3.81v24.23h-3.81V27.11z"/>
	<path d="M179.44,27.11h4.78l3.7,14.5h0.07v-14.5h3.39v24.23h-3.91l-4.57-17.68h-0.07v17.68h-3.39V27.11z"/>
	<path d="M204.11,30.57h-3.98v-3.46h11.77v3.46h-3.98v20.76h-3.81V30.57z"/>
	<path d="M222,27.11h5.16l3.94,24.23h-3.81l-0.69-4.81v0.07h-4.33l-0.69,4.74h-3.53L222,27.11z M226.15,43.3l-1.7-11.97h-0.07
		l-1.66,11.97H226.15z"/>
	<path d="M239.5,45.59V32.85c0-3.88,1.94-6.09,5.68-6.09c3.74,0,5.68,2.21,5.68,6.09v2.08h-3.6v-2.32c0-1.73-0.76-2.39-1.97-2.39
		s-1.97,0.66-1.97,2.39v13.25c0,1.73,0.76,2.35,1.97,2.35s1.97-0.62,1.97-2.35v-4.74h-1.9v-3.46h5.5v7.93
		c0,3.88-1.94,6.09-5.68,6.09C241.44,51.68,239.5,49.46,239.5,45.59z"/>
	<path d="M260.23,27.11h10.38v3.46h-6.58v6.4h5.23v3.46h-5.23v7.44h6.58v3.46h-10.38V27.11z"/>
	<path d="M292.16,27.11h4.78l3.7,14.5h0.07v-14.5h3.39v24.23h-3.91l-4.57-17.68h-0.07v17.68h-3.39V27.11z"/>
	<path d="M316.8,27.11h5.16l3.94,24.23h-3.81l-0.69-4.81v0.07h-4.33l-0.69,4.74h-3.53L316.8,27.11z M320.95,43.3l-1.7-11.97h-0.07
		l-1.66,11.97H320.95z"/>
	<path d="M336.04,30.57h-3.98v-3.46h11.77v3.46h-3.98v20.76h-3.81V30.57z"/>
	<path d="M352.44,45.59V27.11h3.81v18.76c0,1.73,0.73,2.35,1.94,2.35c1.21,0,1.94-0.62,1.94-2.35V27.11h3.67v18.48
		c0,3.88-1.94,6.09-5.68,6.09C354.38,51.68,352.44,49.46,352.44,45.59z"/>
	<path d="M373.4,27.11h5.64c3.95,0,5.64,1.83,5.64,5.57v1.49c0,2.49-0.8,4.08-2.49,4.78v0.07c1.9,0.59,2.53,2.39,2.53,5.12v4.26
		c0,1.18,0.03,2.04,0.42,2.94h-3.88c-0.21-0.62-0.35-1-0.35-2.98v-4.43c0-2.25-0.66-2.98-2.39-2.98h-1.31v10.38h-3.81V27.11z
		 M378.6,37.49c1.42,0,2.28-0.62,2.28-2.56v-1.87c0-1.73-0.59-2.49-1.94-2.49h-1.73v6.92H378.6z"/>
	<path d="M397.21,27.11h5.16l3.94,24.23h-3.81l-0.69-4.81v0.07h-4.33l-0.69,4.74h-3.53L397.21,27.11z M401.36,43.3l-1.7-11.97h-0.07
		l-1.66,11.97H401.36z"/>
	<path d="M415.06,27.11h3.81v20.76h6.26v3.46h-10.07V27.11z"/>
	<path d="M446.34,27.11h5.43l2.42,17.34h0.07l2.42-17.34h5.43v24.23h-3.6V32.99h-0.07l-2.77,18.34h-3.18l-2.77-18.34h-0.07v18.34
		h-3.32V27.11z"/>
	<path d="M471.6,45.59V32.85c0-3.88,2.04-6.09,5.78-6.09s5.78,2.21,5.78,6.09v12.74c0,3.88-2.04,6.09-5.78,6.09
		S471.6,49.46,471.6,45.59z M479.35,45.83V32.61c0-1.73-0.76-2.39-1.97-2.39c-1.21,0-1.97,0.66-1.97,2.39v13.22
		c0,1.73,0.76,2.39,1.97,2.39C478.59,48.22,479.35,47.56,479.35,45.83z"/>
	<path d="M492.64,27.11h5.81c3.81,0,5.67,2.11,5.67,5.99v12.25c0,3.88-1.87,5.99-5.67,5.99h-5.81V27.11z M498.38,47.87
		c1.21,0,1.94-0.62,1.94-2.35v-12.6c0-1.73-0.73-2.35-1.94-2.35h-1.94v17.3H498.38z"/>
	<path d="M513.6,27.11h10.38v3.46h-6.58v6.4h5.23v3.46h-5.23v7.44h6.58v3.46H513.6V27.11z"/>
	<path d="M533.08,27.11h5.64c3.95,0,5.64,1.83,5.64,5.57v1.49c0,2.49-0.8,4.08-2.49,4.78v0.07c1.9,0.59,2.53,2.39,2.53,5.12v4.26
		c0,1.18,0.03,2.04,0.42,2.94h-3.88c-0.21-0.62-0.35-1-0.35-2.98v-4.43c0-2.25-0.66-2.98-2.39-2.98h-1.31v10.38h-3.81V27.11z
		 M538.27,37.49c1.42,0,2.28-0.62,2.28-2.56v-1.87c0-1.73-0.59-2.49-1.94-2.49h-1.73v6.92H538.27z"/>
	<path d="M553.95,27.11h4.78l3.7,14.5h0.07v-14.5h3.39v24.23h-3.91l-4.57-17.68h-0.07v17.68h-3.39V27.11z"/>
</g>
<line class="st6" x1="243.9" y1="67.43" x2="301.29" y2="11.47"/>
<line class="st6" x1="397.42" y1="67.43" x2="454.8" y2="11.47"/>
<line class="st6" x1="537.12" y1="67.43" x2="594.5" y2="11.47"/>
<g>
	<g>
		<g>
			<g>
				<g>
					<g>
						<path d="M633.57,60.46c0,0,1.64,0,2.4,0c0.78,0,1.78,0.13,1.78,1.05c0,0.9,0,8.21,0,8.21s-2.69,0.98-7.57,0.98
							c-4.87,0-11.41-2.64-11.41-9.97c0-7.3,6.8-10.17,11.84-10.17c2.26,0,5.09,0.13,5.09,1.38v2.45c-1.92-1.54-2.69-1.81-5.59-1.81
							c-2.91,0-8.11,1.88-8.11,7.97c0,6.1,6.98,9.72,12.77,7.43c0,0,0-3.71,0-4.67C634.76,62.34,634.71,60.46,633.57,60.46z"/>
						<path d="M670.04,70.21h6.16c-1.71-0.63-2.41-2.64-2.97-4.11c-0.58-1.46-5.04-12.12-5.54-13.6c-0.49-1.46-1.2-1.46-1.77-1.46
							c-0.57,0-3.54,0-3.54,0c1.71,0.56,0.78,1.75,0.5,2.57c-0.28,0.84-6.24,15.33-6.24,15.33c-2.06-0.55-7.22-8.02-7.22-8.02
							c6.88-1.95,5.81-9.89-0.91-9.89c-0.78,0-7.72,0-7.72,0c1.55,0.34,1.41,1.95,1.41,3.2c0,1.26,0,11.36,0,13.18
							c0,1.81-0.57,2.29-1.48,2.78h5.65c-1.55-0.69-1.14-2.3-1.14-3.05c0-0.78,0-14.22,0-14.22s1.42,0,3.05,0
							c1.62,0,2.83,1.95,2.83,3.28c0,2.15-1.7,2.99-3.4,3.62c-1.7,0.62-0.78,2.02,0,3.14c0.79,1.11,3.05,4.24,4.4,5.78
							c1.35,1.53,2.54,1.46,3.19,1.46c0.62,0,5.1,0,5.1,0c-1.98-0.63-0.93-2.15-0.65-2.91c0.28-0.78,1.57-4.05,1.57-4.05h7.64
							c0,0,0.92,2.36,1.77,4.46C671.59,69.8,670.96,70.07,670.04,70.21z M662.1,61.02l2.92-7.46l3.1,7.46H662.1z"/>
						<path d="M732.05,70.21h6.17c-1.7-0.63-2.41-2.64-2.97-4.11c-0.57-1.46-5.03-12.12-5.53-13.6c-0.5-1.46-1.2-1.46-1.77-1.46
							c-0.56,0-3.54,0-3.54,0c1.7,0.56,0.78,1.75,0.5,2.57c-0.29,0.84-6.23,15.33-6.23,15.33c-0.4,0.9-0.98,0.93-1.33,1.25
							c0.63,0,5.09,0,5.09,0c-1.98-0.63-0.91-2.15-0.64-2.91c0.27-0.78,1.56-4.05,1.56-4.05h7.66c0,0,0.92,2.36,1.77,4.46
							C733.61,69.8,732.98,70.07,732.05,70.21z M724.13,61.02l2.89-7.46l3.13,7.46H724.13z"/>
						<path d="M710.26,70.57c0.71-0.64,1.35-1.12,1.35-3.35c0-2.22,0-12.13,0-13.17c0-1.04-0.05-2.23-1.35-2.66h5.46
							c-0.56,0.49-1.24,1.12-1.24,2.52c0,1.39,0,12.13,0,13.32c0,1.19-0.26,2.93,1.32,3.35H710.26z"/>
						<path d="M680.93,55.51c0,0-0.07,10.52-0.07,11.71c0,1.19,0.16,2.93,1.71,3.35h-5.18c0.71-0.64,1.28-1.12,1.28-3.35
							c0-2.22,0.13-12.13,0.13-13.17c0-1.04-0.13-2.23-1.41-2.66h3.97l11.89,14.71c0,0,0-11.21,0-11.99c0-0.77,0.15-2.23-1.48-2.79
							h5.31c-0.64,0.49-1.57,0.69-1.57,2.72c0,2.01,0,17.3,0,17.3s-1.47,0.27-3.88-2.59C689.23,65.9,680.93,55.51,680.93,55.51z"/>
						<path d="M714.78,85.4c-15.58-12.92-21.53-28.12-0.23-48.89c0.66-0.64,1.3-0.26,0.78,0.34c-9.35,10.5-19.74,27.31-0.22,47.9
							C715.41,85.08,715.29,85.75,714.78,85.4z"/>
					</g>
				</g>
			</g>
		</g>
	</g>
	<path d="M742.49,70.38c-1.44,0-2.62-1.17-2.62-2.62s1.17-2.62,2.62-2.62c1.44,0,2.62,1.17,2.62,2.62S743.93,70.38,742.49,70.38z
		 M742.49,65.47c-1.26,0-2.29,1.03-2.29,2.29c0,1.26,1.03,2.29,2.29,2.29c1.26,0,2.29-1.03,2.29-2.29
		C744.77,66.5,743.75,65.47,742.49,65.47z"/>
	<g>
		<path d="M743.12,69.18c-0.06-0.05-0.09-0.1-0.09-0.3v-0.34c0-0.2-0.06-0.46-0.36-0.46h-0.72v1.1h-0.52v-2.81h1.33
			c0.52,0,0.87,0.32,0.87,0.76c0,0.19-0.06,0.35-0.17,0.48c-0.11,0.12-0.2,0.17-0.44,0.23c0.27,0.04,0.54,0.12,0.54,0.65v0.29
			c0,0.28,0.1,0.35,0.18,0.41H743.12z M742.68,66.8h-0.74v0.83h0.65c0.29,0,0.47-0.15,0.47-0.44
			C743.06,66.94,742.91,66.8,742.68,66.8z"/>
	</g>
</g>
</svg>
