<?xml version="1.0" encoding="UTF-8"?>
<svg xmlns="http://www.w3.org/2000/svg" xmlns:xlink="http://www.w3.org/1999/xlink" viewBox="0 0 325 110">
  <defs>
    <style>
      .cls-1 {
        fill: #231815;
      }

      .cls-1, .cls-2, .cls-3, .cls-4, .cls-5, .cls-6, .cls-7, .cls-8 {
        stroke-width: 0px;
      }

      .cls-2 {
        fill: #d37531;
      }

      .cls-9 {
        isolation: isolate;
      }

      .cls-4 {
        fill: #3b3840;
      }

      .cls-5, .cls-10 {
        fill: none;
      }

      .cls-10 {
        stroke: #000;
        stroke-miterlimit: 10;
        stroke-width: .3987342px;
      }

      .cls-6 {
        fill: url(#_名称未設定グラデーション_22);
        opacity: .38;
      }

      .cls-6, .cls-8 {
        mix-blend-mode: multiply;
      }

      .cls-7 {
        fill: #857e6b;
      }

      .cls-8 {
        fill: url(#_名称未設定グラデーション_28);
        opacity: .39;
      }
    </style>
    <linearGradient id="_名称未設定グラデーション_28" data-name="名称未設定グラデーション 28" x1="173.7052353" y1="53.3869206" x2="152.7448022" y2="-4.2013958" gradientUnits="userSpaceOnUse">
      <stop offset="0" stop-color="#595757"/>
      <stop offset=".4" stop-color="#595757" stop-opacity="0"/>
    </linearGradient>
    <linearGradient id="_名称未設定グラデーション_22" data-name="名称未設定グラデーション 22" x1="172.7872332" y1="52.3891654" x2="151.8268002" y2="-5.199151" gradientUnits="userSpaceOnUse">
      <stop offset="0" stop-color="#a38a77"/>
      <stop offset=".4" stop-color="#a38a77" stop-opacity="0"/>
    </linearGradient>
  </defs>
  <g class="cls-9">
    <g id="_レイヤー_2" data-name="レイヤー 2">
      <g id="_ヘッダー" data-name="ヘッダー">
        <g>
          <g>
            <g>
              <path class="cls-8" d="m138.4602523.9977552h13.391727v47.1900144h-13.391727V.9977552Zm18.0689029,47.1900144h13.391727V.9977552h-13.391727v47.1900144Zm18.0689029,0h13.391727V.9977552h-13.391727v47.1900144Z"/>
              <g>
                <rect class="cls-2" x="137.5422503" width="13.391727" height="47.1900144"/>
                <rect class="cls-7" x="155.6111532" width="13.391727" height="47.1900144"/>
                <rect class="cls-4" x="173.6800562" width="13.391727" height="47.1900144"/>
              </g>
              <path class="cls-6" d="m137.5422503,0h13.391727v47.1900144h-13.391727V0Zm18.0689029,47.1900144h13.391727V0h-13.391727v47.1900144Zm18.0689029,0h13.391727V0h-13.391727v47.1900144Z"/>
              <g>
                <path class="cls-1" d="m137.0102148,56.8890616v-.3675126h.9552963v.4408377c0,.459169.2019398.6244462.5233285.6244462.3216844,0,.5236242-.1652772.5236242-.6427775,0-.5327898-.2019398-.8725099-.8633442-1.4511279-.8450129-.7438952-1.1202778-1.2672237-1.1202778-2.002249,0-1.0099945.5233285-1.5977781,1.5061217-1.5977781.9824975,0,1.4694592.5877837,1.4694592,1.6164051v.2660992h-.9552963v-.3305544c0-.459169-.1836085-.6336119-.5049972-.6336119s-.5052929.1744428-.5052929.6152806c0,.4683347.2114011.8083504.8725099,1.3869684.8450129.7438952,1.1114078,1.2580581,1.1114078,2.0572428,0,1.0469527-.5327898,1.6347364-1.524453,1.6347364-.9919588,0-1.4880861-.5877837-1.4880861-1.6164051Z"/>
                <path class="cls-1" d="m142.3106161,52.9028949h-1.0561183v-.9183381h3.1225268v.9183381h-1.0561183v5.5106197h-1.0102901v-5.5106197Z"/>
                <path class="cls-1" d="m146.7107149,55.676536l-1.2213955-3.6919792h1.0744496l.6889014,2.3603003h.0183313l.6886057-2.3603003h.9827932l-1.2213955,3.6919792v2.7369786h-1.0102901v-2.7369786Z"/>
                <path class="cls-1" d="m150.3210903,51.9845568h1.0099945v5.5106197h1.6625289v.9183381h-2.6725234v-6.4289577Z"/>
                <path class="cls-1" d="m154.3998004,51.9845568h2.7550142v.9183381h-1.7450197v1.6991915h1.3869684v.9183381h-1.3869684v1.9747521h1.7450197v.9183381h-2.7550142v-6.4289577Z"/>
                <path class="cls-1" d="m161.0413418,51.9845568h1.0099945v2.6175296h1.0839109v-2.6175296h1.0102901v6.4289577h-1.0102901v-2.8930901h-1.0839109v2.8930901h-1.0099945v-6.4289577Z"/>
                <path class="cls-1" d="m165.7444981,56.8890616v-3.3797561c0-1.0286214.5419555-1.6164051,1.5339143-1.6164051.9916632,0,1.5336186.5877837,1.5336186,1.6164051v3.3797561c0,1.0286214-.5419555,1.6164051-1.5336186,1.6164051-.9919588,0-1.5339143-.5877837-1.5339143-1.6164051Zm2.0572428.0641595v-3.5083707c0-.459169-.2019398-.6336119-.5233285-.6336119-.3216844,0-.5236242.1744428-.5236242.6336119v3.5083707c0,.459169.2019398.6336119.5236242.6336119.3213888,0,.5233285-.1744428.5233285-.6336119Z"/>
                <path class="cls-1" d="m170.3740336,56.8890616v-4.9045047h1.0102901v4.9778298c0,.459169.1930698.6244462.5144585.6244462s.5141629-.1652772.5141629-.6244462v-4.9778298h.9736276v4.9045047c0,1.0286214-.5144585,1.6164051-1.5061217,1.6164051-.9919588,0-1.5064174-.5877837-1.5064174-1.6164051Z"/>
                <path class="cls-1" d="m174.8477532,56.8890616v-.3675126h.9552963v.4408377c0,.459169.2019398.6244462.5233285.6244462.3216844,0,.5236242-.1652772.5236242-.6427775,0-.5327898-.2019398-.8725099-.8633442-1.4511279-.8450129-.7438952-1.1202778-1.2672237-1.1202778-2.002249,0-1.0099945.5233285-1.5977781,1.5061217-1.5977781.9824975,0,1.4694514.5877837,1.4694514,1.6164051v.2660992h-.9552885v-.3305544c0-.459169-.1836085-.6336119-.5049972-.6336119s-.5052929.1744428-.5052929.6152806c0,.4683347.2114011.8083504.8725099,1.3869684.8450129.7438952,1.1114078,1.2580581,1.1114078,2.0572428,0,1.0469527-.5327898,1.6347364-1.524453,1.6347364-.9919588,0-1.4880861-.5877837-1.4880861-1.6164051Z"/>
                <path class="cls-1" d="m179.3584311,51.9845568h2.7550142v.9183381h-1.7450197v1.6991915h1.3869684v.9183381h-1.3869684v1.9747521h1.7450197v.9183381h-2.7550142v-6.4289577Z"/>
                <path class="cls-1" d="m183.4368455,56.8890616v-.3675126h.9552963v.4408377c0,.459169.2019398.6244462.5233285.6244462.3216844,0,.5236242-.1652772.5236242-.6427775,0-.5327898-.2019398-.8725099-.8633442-1.4511279-.8450129-.7438952-1.1202778-1.2672237-1.1202778-2.002249,0-1.0099945.5233285-1.5977781,1.5061217-1.5977781.9824975,0,1.4694592.5877837,1.4694592,1.6164051v.2660992h-.9552963v-.3305544c0-.459169-.1836085-.6336119-.5049972-.6336119s-.5052929.1744428-.5052929.6152806c0,.4683347.2114011.8083504.8725099,1.3869684.8450129.7438952,1.1114078,1.2580581,1.1114078,2.0572428,0,1.0469527-.5327898,1.6347364-1.524453,1.6347364-.9919588,0-1.4880861-.5877837-1.4880861-1.6164051Z"/>
              </g>
            </g>
            <g>
              <g>
                <path class="cls-3" d="m39.3959854,108.8613909l-.1333453-.4118625c-.6782574.460056-1.2234652.7267466-1.8289888.7267466-1.0658753,0-1.4534932-.944948-1.4534932-1.6716946,0-.9810192.5206675-2.6527138,2.7739368-3.8155675.0242446-.5452078.0603158-.8358473.0966827-1.1507314-.2421503.0121223-.5206675.0242446-.9082854.0242446-.3997402,0-.7388689-.0242446-.944948-.0363669l-.3027618-1.3325659c.3148841.0606115.8479696.1697122,1.6110831.1697122.3391287,0,.5570344-.0242446.7388689-.0363669.2057834-1.0052638.3027618-1.4292486.4603517-2.1317506l1.2355875.3997402c.2421503.0845604.3270064.1209273.3270064.2057834,0,.0969784-.0242446.1091007-.2182014.1818345-.1330496.0481935-.3997402.9446523-.472474,1.1989249,1.1628537-.1936611,1.9623341-.3391287,2.9921382-.7873581v1.3931774c-1.2355875.3270064-1.9380895.4482294-3.2706554.6297682-.0848561.4845963-.0969784.5330855-.1330496.8479696.1451719-.0242446.4358114-.0606115.9204077-.0606115.2182014,0,.3391287,0,.4603517.0121223.0363669-.0969784.1697122-.5088409.1936611-.5934013l1.3083213.3270064c-.0606115.1694165-.0848561.2179057-.1936611.5088409.5327898.2057834,2.1559952.811307,2.1559952,2.7978857,0,1.1022422-.6540128,2.9194044-3.4521942,3.6340287l-.7873581-1.1022422c.5934013-.121223,2.8827418-.6058193,2.8827418-2.5075419,0-1.1992206-.6903797-1.5141047-1.1989249-1.756255-.5815747,1.2355875-1.0298041,2.0590168-1.889896,2.9675979.1454676.4482294.2060791.593697.2545683.7388689l-1.2234652.6300639Zm-.6661351-3.8883013c-1.1143645.7631135-1.4898601,1.8289888-1.4898601,2.3860232,0,.3879136.1936611.5815747.4479337.5815747.3997402,0,.9207034-.4603517,1.2719544-.7631135-.1333453-.5088409-.230028-1.6959392-.230028-2.2044844Zm2.228729-.7027977c-.3997402-.0239489-.6782574,0-1.0901199.1697122-.0121223.5330855.0848561,1.3325659.1209273,1.6716946.1697122-.242446.4967186-.7146243.9691926-1.8414068Z"/>
                <path class="cls-3" d="m54.8492555,99.5343168c.1333453.0484892.3876179.1330496.3876179.2421503,0,.0363669-.2057834.1697122-.2663949.2060791-.1091007.0724381-.4239848,1.0052638-.4967186,1.2231695.9207034-.1815388,1.2719544-.2906395,1.5625939-.4358114l-.0848561,1.3686371c-.4964229.1333453-1.053753.2421503-1.9138449.3391287-.8600919,2.3135851-2.4466347,4.9784212-2.5193685,5.0996442l-1.3446882-.6297682c1.1264868-1.2598321,1.877478-2.7860591,2.4954196-4.3728976-.4967186.0242446-1.1507314.0484892-1.64745.0606115l-.0606115-1.2840767c.2663949.0242446.6903797.0727338,1.1507314.0727338.3391287,0,.6543085-.0242446.9934372-.0484892.230028-.7146243.460056-1.4534932.6176459-2.2166067l1.1264868.3754956Zm3.1130655,9.7750079c-.3997402-.3997402-.7388689-.6661351-1.1507314-.9446523-.0969784.5088409-.3270064,1.4292486-2.0108233,1.4292486-1.3443925,0-2.4226858-.6782574-2.4226858-1.7683773,0-.944948.8479696-1.7080615,2.0471902-1.7080615.5209632,0,.8964588.0848561,1.1264868.1454676-.0121223-.2663949-.0484892-1.4295443-.0484892-1.6716946,0-.8116027.242446-1.1143645.6058193-1.4292486l1.1992206.7267466c-.5694524.472474-.5694524.6661351-.5694524,1.0052638,0,.2909352.0484892,1.5625939.0484892,1.8171622.8722142.4361071,1.4534932.8597962,1.9744564,1.3080256l-.7994804,1.0901199Zm-3.6219064-1.877478c-.702502,0-.7752358.4482294-.7752358.5815747,0,.5206675.7270423.6418905,1.066171.6418905.8719185,0,.9082854-.5934013.93253-.93253-.5327898-.1939568-.8479696-.2909352-1.2234652-.2909352Zm4.4456314-3.3794604c-.7146243-.702502-1.8532334-1.1992206-2.6527138-1.4656155l.6540128-.9570703c1.2840767.3270064,2.1562909.9207034,2.7254476,1.3810551l-.7267466,1.0416307Z"/>
                <path class="cls-3" d="m68.9578373,99.6431218c.0969784.0242446.3754956.1091007.3754956.1939568,0,.0242446,0,.0848561-.0363669.121223s-.2060791.1330496-.2303237.1694165c-.0360712.0484892-.3148841,1.2234652-.3633733,1.4052997,1.2477098-.3030575,1.64745-.5452078,1.9502118-.7270423l.0484892,1.3446882c-.7267466.3270064-1.4292486.4967186-2.3620743.6782574-.9810192,3.3555115-1.8411111,5.1481334-2.4830016,6.4804036l-1.3810551-.5206675c1.4659112-2.1926578,2.2047801-4.7362709,2.4954196-5.7779016-.6903797.0606115-1.0779976.0848561-1.8532334.0966827l-.0606115-1.3686371c.2906395.0484892.6297682.0969784,1.174976.0969784.4603517,0,.823725-.0363669,1.053753-.0606115.3148841-1.3446882.3876179-1.8411111.3876179-2.4469304l1.2840767.3148841Zm4.6392925,9.484664c-.6179416.1333453-1.5625939.1333453-1.9623341.1333453-2.2529736,0-3.2100439-.3633733-3.2100439-1.6716946,0-.3633733.0484892-.7631135.1333453-1.1143645l1.2477098.3027618c-.0484892.1091007-.1091007.2421503-.1091007.4482294,0,.4603517.2542726.7509912,1.5989608.7509912,1.2113429,0,1.877478-.1818345,2.2408513-.2906395l.0606115,1.4413709Zm-.121223-4.5544364c-.6055236-.121223-1.3322702-.242446-1.9623341-.242446-.1694165,0-.9567746.0121223-1.6595723.1818345v-1.3204436c.3151798-.0121223,1.7201838-.0606115,1.998701-.0606115,1.1022422,0,1.417422.0848561,1.6232054.1333453v1.3083213Z"/>
                <path class="cls-3" d="m83.7813392,108.1464709c.7631135-.2179057,3.1855036-.8840408,3.1855036-3.6458553,0-2.7375699-2.3014628-3.0766986-3.0160871-3.1857993-.1936611,1.4292486-.4845963,3.4643165-1.5019824,5.753657-.121223.2788129-.702502,1.5989608-1.4171263,1.5989608-.7509912,0-2.4954196-1.0658753-2.4954196-3.4885611,0-2.6648361,2.1441686-5.0147881,5.2208672-5.0147881,2.7978857,0,4.5665587,1.8047442,4.5665587,4.348653,0,3.3915827-2.7254476,4.4089688-3.6340287,4.7483932l-.9082854-1.1146602Zm-4.0458912-2.9675979c0,1.0779976.6176459,1.8653557,1.0416307,1.8653557.2666906,0,.4845963-.4964229.6421862-.8597962.6418905-1.5022781,1.0416307-3.1130655,1.1628537-4.7362709-2.5439088.8722142-2.8466706,2.8948641-2.8466706,3.7307114Z"/>
                <path class="cls-3" d="m93.6137062,103.8466028v-1.2234652h6.6258712c.1818345,0,.3391287,0,.7267466-.3754956l1.2113429,1.1507314c-.5452078.3633733-.6540128.5570344-.8358473,1.0295084-1.1386091,2.8830375-2.7981814,4.348653-5.2690607,5.3175499l-1.1628537-1.0052638c3.0160871-1.0416307,4.3607753-2.3741966,5.1481334-4.8935651h-6.4443323Zm6.928633-3.8640567v1.2231695h-5.7779016v-1.2231695h5.7779016Z"/>
                <path class="cls-3" d="m111.6472519,104.0887531c-1.2355875.8358473-2.1441686,1.3443925-3.1251878,1.7804996l-1.0540487-1.1386091c3.8037408-1.405004,6.1415705-3.9728617,7.1953235-5.281183l.9085811.7873581c.3391287.3027618.3876179.3270064.3876179.4361071,0,.108805-.0363669.108805-.3754956.108805-.1091007,0-.1575899.0606115-.593697.5330855-.581279.6176459-1.2477098,1.1870983-1.9380895,1.7444284v6.4076698h-1.405004v-5.3781614Z"/>
                <path class="cls-3" d="m122.5582079,101.9445846v-1.2595364h6.686187c.1575899,0,.3633733,0,.593697-.242446l1.1264868,1.1143645q-.3391287.242446-.8600919,1.7323061c-.472474,1.3686371-1.5141047,4.1425739-5.4630175,6.104908l-1.1143645-1.0779976c3.5491726-1.5504716,4.8332493-3.6822222,5.5599959-6.3715985h-6.5288928Z"/>
                <path class="cls-3" d="m144.5037082,108.933829c-.6903797-1.0052638-1.5989608-2.0590168-3.0282094-3.2218705-.7994804.9204077-1.8292845,2.1196283-4.2516746,3.2339928l-1.0298041-1.0173861c1.3325659-.581279,4.3971422-1.9744564,6.0567144-6.0685411h-4.699904v-1.296199h4.9178097c.2666906,0,.5330855,0,1.0419264-.3633733l.9446523,1.1628537c-.5570344.2421503-.6297682.3754956-.7752358.7146243-.0484892.1333453-.4239848,1.0416307-1.3928817,2.5317865,1.9380895,1.4534932,2.8463749,2.6769584,3.2461151,3.2218705l-1.0295084,1.1022422Z"/>
                <path class="cls-3" d="m151.6354636,108.6310672c1.986283-.6540128,3.2097482-1.6956435,4.0819624-2.6890807-.8964588-.6782574-1.5868385-1.0901199-2.228729-1.3807594l.7631135-.8964588c.7146243.3148841,1.4171263.7388689,2.2044844,1.2719544.3027618-.4845963.7752358-1.2840767,1.1264868-2.3984412h-3.282482c-.3391287.5209632-1.1628537,1.7198881-2.2893405,2.4951239l-1.1264868-.7631135c2.1802398-1.526227,3.0645763-3.4400719,3.5488769-4.8571982l1.1628537.4603517c.3273021.1330496.3273021.1815388.3273021.2421503,0,.0848561-.0848561.121223-.1697122.1333453-.1454676.0363669-.1697122.0606115-.3391287.3876179-.1333453.2663949-.2542726.4967186-.3876179.7509912h2.7375699c.2542726,0,.5085452-.1697122.7146243-.3391287l1.0416307.93253c-.4361071.3754956-.4964229.4967186-.6540128.9085811-.5694524,1.526227-1.1628537,2.4469304-1.405004,2.822426.3391287.2421503.7509912.6055236,1.0295084.8840408l-.9207034,1.1146602c-.108805-.1333453-.5691567-.6906754-.8840408-.944948-.6058193.7146243-1.6838169,1.9502118-4.0943804,2.931231l-.9567746-1.0658753Z"/>
                <path class="cls-3" d="m169.050772,104.0887531c-1.2355875.8358473-2.1441686,1.3443925-3.1251878,1.7804996l-1.0540487-1.1386091c3.8037408-1.405004,6.1415705-3.9728617,7.1953235-5.281183l.9085811.7873581c.3391287.3027618.3876179.3270064.3876179.4361071,0,.108805-.0363669.108805-.3754956.108805-.1091007,0-.1575899.0606115-.593697.5330855-.581279.6176459-1.2477098,1.1870983-1.9380895,1.7444284v6.4076698h-1.405004v-5.3781614Z"/>
                <path class="cls-3" d="m178.5079391,107.5409473c2.1684132-1.5141047,2.5317865-2.8103037,2.5317865-5.5842405,0-.7388689-.0242446-1.1868026-.0363669-1.5504716l1.2840767.1697122c.3876179.0484892.3876179.0848561.3876179.1575899,0,.0845604-.0848561.1694165-.1454676.2179057-.1333453.121223-.1575899.1333453-.1575899.4845963-.0121223,3.1009432-.0242446,4.8814428-2.8342526,7.1465387l-1.0298041-1.0416307Zm5.3539168-7.1589566l1.2477098.1697122c.3876179.0484892.4361071.0484892.4361071.1575899,0,.0845604-.0363669.108805-.2057834.230028-.1818345.1333453-.1818345.1939568-.1818345.2906395v5.4993844c.9813149-.6540128,2.2044844-1.5989608,3.2706554-3.3794604l.8479696,1.0901199c-.4361071.6297682-1.7444284,2.5196642-4.6032212,4.2031854l-.8116027-.702502v-7.5586968Z"/>
                <path class="cls-3" d="m202.5857813,104.270292c-.3876179.1454676-2.107506.823725-2.458757.9570703.0481935.7994804.108805,1.64745.1209273,2.4348081h-1.3686371c.0606115-1.5747162.0606115-1.6110831.0606115-1.9138449-.4361071.2179057-1.6959392.8355516-1.6959392,1.7926219,0,.8722142,1.0052638.9570703,1.7201838.9570703.4358114,0,1.4898601-.0484892,3.1248921-.4239848v1.3080256c-.7267466.121223-1.5986651.2545683-2.7372742.2545683-1.3810551,0-3.3676338-.1575899-3.3676338-1.8535291,0-1.7198881,1.7807953-2.6042246,2.8951598-3.1733813-.0848561-.2909352-.242446-.8600919-.9570703-.8600919-1.1143645,0-2.107506,1.405004-2.6648361,2.2772182l-1.1143645-.7267466c1.3928817-1.3931774,2.0956794-2.6163469,2.4105635-3.2585331-.1575899.0121223-1.1386091.0727338-1.7080615.0484892l-.1694165-1.2598321c.5327898.0606115,1.0416307.0727338,1.5747162.0727338.3027618,0,.3391287,0,.8355516-.0121223.1818345-.4967186.3876179-1.0658753.4967186-1.6110831l1.174976.2060791c.4361071.0727338.4361071.1209273.4361071.1815388s-.0242446.0848561-.2663949.2545683c-.0484892.0242446-.3633733.7146243-.4118625.823725.6418905-.0727338,1.8532334-.3151798,2.4951239-.6058193l-.1451719,1.296199c-.9328257.230028-2.349952.3997402-2.9194044.4603517-.230028.460056-.4118625.7509912-.6297682,1.053753.1936611-.0727338.5327898-.2060791,1.053753-.2060791,1.1264868,0,1.4534932.6664308,1.6353277,1.3568105.3027618-.121223,1.3080256-.5452078,2.1196283-1.1264868l.4603517,1.2959033Z"/>
                <path class="cls-3" d="m213.7628366,108.3404277c-.9810192.2906395-2.0347722.6176459-4.4695803,1.2355875-.2060791.0484892-.3391287.108805-.3876179.1815388-.1091007.1575899-.157603.2060791-.230028.2060791-.1454676,0-.1697122-.0848561-.242446-.2906395l-.4239848-1.2234652c.7873581-.0969784,1.1628537-.1575899,2.0350679-.3151798v-1.2959033c-.7994804.3997402-1.2234652.581279-2.0229456.8843365l-.823725-1.0419264c2.2653916-.7631135,3.2221662-1.2716587,4.2759192-2.2166067h-4.0819624v-1.0779976h4.5301918v-.6664308h-3.0039648v-.9810192h3.0039648v-.6055236h-4.1910631v-1.0782933h4.1910631v-.8840408l1.2234652.0724381c.1939568.0121223.3391287.0606115.3391287.1454676,0,.0363669-.0484892.0969784-.0727338.121223-.1451719.1572942-.2057834.230028-.2057834.3391287v.2057834h4.4089688v1.0782933h-4.4089688v.6055236h3.2221662v.9810192h-3.2221662v.6664308h4.7120263v1.0779976h-4.5426097c.3997402.8116027.7509912,1.2840767,1.1628537,1.7926219.7994804-.6782574,1.1628537-.9931415,1.8050399-1.7320104l.7388689.7146243c.0727338.0727338.1815388.1818345.1815388.2663949,0,.0848561-.0603158.0969784-.230028.0969784-.0363669,0-.2060791.1333453-.2542726.1697122-.3754956.2906395-1.1264868.8476739-1.5625939,1.1628537.7873581.6903797,1.526227,1.2231695,2.7254476,1.6471543l-.9570703,1.0782933c-2.3741966-1.296199-2.9554756-1.9865787-4.5059472-4.4213868-.4361071.3633733-.7388689.5934013-1.1264868.8479696v1.7683773c.6782574-.1572942,1.4292486-.3633733,2.349952-.6540128l.0603158,1.1386091Z"/>
                <path class="cls-3" d="m224.3710307,106.4265828c.2663949-.0606115.6055236-.1575899,1.5141047-.5088409l.0606115,1.0419264c-1.5383493.6176459-2.1923621.7873581-3.4521942,1.1022422-.2182014.0606115-.2421503.0845604-.3027618.2179057-.0484892.0606115-.1091007.1697122-.2182014.1697122-.1451719,0-.1694165-.1333453-.1936611-.2545683l-.2303237-1.1022422c.1939568-.0363669.8722142-.1572942,1.6110831-.3391287v-2.4954196h-1.3322702v-1.0416307h1.3322702v-2.1559952h-1.4777378v-1.0419264h4.1668185v1.0419264h-1.4777378v2.1559952h1.2355875v1.0416307h-1.2355875v2.1684132Zm3.876179-.4967186c.2906395.121223.3148841.1333453.3148841.2303237,0,.1209273-.0363669.1330496-.2663949.1936611-.1333453.0363669-.1333453.0606115-.2182014.3270064-.4115668,1.417422-.9931415,2.2650959-3.0039648,3.052454l-.8722142-.9446523c2.2775139-.6543085,2.6651318-1.6110831,2.8830375-3.173677h-.7146243v-6.0082252h5.1966226v6.0082252h-1.4659112v2.3984412c0,.230028.1575899.3391287.3997402.3391287h.3876179c.5088409,0,.5815747-.5209632.6903797-1.2477098l1.0419264.4967186c-.0242446.1454676-.2182014,1.0901199-.4482294,1.4292486-.2663949.3876179-.593697.472474-.9570703.472474h-1.2959033c-.9691926,0-1.0298041-.5209632-1.0298041-1.0173861v-2.8709152h-1.3686371l.7267466.3148841Zm2.1320463-5.3539168h-2.822426v.7631135h2.822426v-.7631135Zm0,1.6353277h-2.822426v.7994804h2.822426v-.7994804Zm0,1.6713989h-2.822426v.823725h2.822426v-.823725Z"/>
                <path class="cls-3" d="m242.1860794,99.3646046c.472474.0606115.5330855.0727338.5330855.2303237,0,.0603158-.0363669.0966827-.121223.1572942-.1333453.0969784-.1333453.1454676-.1454676,1.4171263,1.1628537-.0724381,2.3017585-.1451719,3.4643165-.2542726v1.3325659c-.4236891-.0121223-1.7683773-.0363669-2.0347722-.0363669-.4967186,0-.9207034.0242446-1.417422.0606115l.0242446,1.5504716c.2303237.351251.4603517.7509912.4603517,1.5383493,0,.6903797-.1333453,1.5019824-.5449121,2.4223901-.4845963,1.0782933-1.0419264,1.6353277-1.7080615,2.2169024l-1.3446882-.6300639c1.4537889-.9204077,1.768673-1.6471543,2.0956794-2.4102678-.1818345.2179057-.4239848.4964229-1.0658753.4964229-.8479696,0-1.6716946-.6661351-1.6716946-2.0347722,0-1.3446882.8600919-2.2896362,2.0714348-2.2896362.1936611,0,.3270064.0242446.4118625.0363669v-.8116027c-3.4158273.2788129-4.118625.4118625-4.5183652.4845963l-.1451719-1.4292486c1.1628537-.0121223,2.0229456-.0484892,4.6271702-.1818345-.0484892-.7752358-.0848561-1.2234652-.2303237-2.0226499l1.2598321.1572942Zm-2.2529736,5.9839806c0,.1815388.0363669.9810192.6661351.9810192.2906395,0,.8116027-.2179057.8116027-1.0295084,0-.7752358-.2906395-.9934372-.702502-.9934372s-.7752358.4603517-.7752358,1.0419264Z"/>
                <path class="cls-3" d="m251.3165358,105.7846923c1.6592766-1.296199,3.1855036-2.7618145,4.3968465-4.4819983-1.2234652.1575899-1.5989608.1939568-2.8827418.2785172l-.2060791-1.3928817c.3391287.0242446.9207034.0606115,1.2598321.0606115.6903797,0,2.8345483-.1818345,3.9004236-.6300639l.5570344.9570703c-.7388689.5452078-1.4171263,1.3083213-2.6769584,2.7496922.2182014-.0606115.5452078-.1333453,1.0055595-.1333453,2.4105635,0,2.8706195,1.7807953,2.8706195,2.7981814,0,2.0956794-1.6956435,3.4643165-3.8883013,3.4643165-.8116027,0-2.4830016-.2057834-2.4830016-1.756255,0-.7873581.5327898-1.6353277,1.8896003-1.6353277,1.5989608,0,2.1438729,1.2113429,2.3135851,1.5868385.3754956-.3148841.8722142-.7388689.8722142-1.6716946,0-.6903797-.2788129-1.6959392-1.9502118-1.6959392-1.6716946,0-2.5560311.9813149-3.9489128,2.5075419l-1.0295084-1.0052638Zm3.7307114,1.3080256c-.3876179,0-.702502.2663949-.702502.5694524,0,.4603517.6418905.6661351,1.1628537.6661351.3270064,0,.6055236-.0727338.7509912-.121223-.1091007-.3633733-.3270064-1.1143645-1.2113429-1.1143645Z"/>
                <path class="cls-3" d="m266.6607051,103.8466028v3.0282094c.230028-.0727338.7146243-.2303237.9810192-.3391287l.0363669.9931415c-.3633733.1454676-2.0711391.7388689-2.2772182.8116027-.0966827.0363669-.1451719.1091007-.2179057.2421503-.0363669.0727338-.0848561.1091007-.1454676.1091007-.0969784,0-.1451719-.1454676-.1572942-.3027618l-.0727338-1.0901199c.1936611-.0363669.5206675-.0969784.6418905-.1333453v-7.2677617l1.2113429.0848561c.9085811-.0606115,2.1441686-.3151798,3.1130655-.7391646l.6297682.7873581c.1333453.1575899.1697122.2303237.1697122.3151798,0,.0724381-.0606115.0966827-.1454676.0966827-.0606115,0-.2906395.0121223-.3754956.0121223-.2057834.0848561-.8479696.2666906-1.0779976.3270064-.0606115.8843365-.0727338,1.2598321-.0727338,2.0350679h1.5625939v1.0298041h-1.526227c.0484892.93253.2663949,1.986283.5452078,2.9069864.0606115.1939568.1572942.4845963.3148841.4845963.2421503,0,.2785172-.3876179.3027618-.7388689l.9328257.4482294v-7.401107h3.633733l.7634092.5206675c-.7752358,1.6232054-1.2719544,2.5560311-1.5989608,3.1615547.5085452.5694524,1.4168306,1.5625939,1.4168306,3.3312669,0,1.7441327-1.2352918,1.9502118-2.228729,2.0590168l-.581279-1.174976c.8964588-.0121223,1.5504716-.0484892,1.5504716-1.0901199,0-1.053753-.5327898-2.0471902-1.4895644-2.931231.4358114-.8722142.7628178-1.5383493,1.296199-2.7739368h-1.5628896v9.1209951h-1.1992206v-2.1802398c-.2060791.6782574-.472474,1.5383493-1.1264868,1.5383493-.4845963,0-.7631135-.3754956-.9085811-.5694524v.9085811h-3.173677v-1.0779976h3.052454c-.7752358-1.2355875-1.0658753-3.4885611-1.1143645-4.5423141h-1.1022422Zm1.0658753-1.0298041c-.0121223-.2542726-.0242446-1.1022422,0-1.8168665-.2906395.0363669-.581279.0484892-1.0658753.0606115v1.756255h1.0658753Z"/>
                <path class="cls-3" d="m284.6336394,107.8194645c0,.3876179.0845604.6300639.6782574.6300639h2.3617786c.4121582,0,.8118984-.0606115.8479696-1.4777378l1.2116386.5206675c-.0851518,1.9502118-1.0052638,2.1684132-1.7201838,2.1684132h-3.2097482c-.5209632,0-1.4416666-.121223-1.4416666-1.1267825v-2.2044844l-3.984984.4361071-.1093964-1.174976,4.0943804-.4361071v-1.1022422c-.5085452.0969784-.9934372.1939568-2.0714348.3391287l-.581279-1.174976c1.3807594-.0969784,3.9731574-.3633733,5.87488-1.4534932l.7994804.823725c.0969784.1091007.1330496.1330496.1330496.1936611s-.0484892.0727338-.0969784.0727338c-.230028,0-.3270064,0-.4115668.0363669-1.2601277.5209632-1.3931774.5815747-2.3741966.8479696v1.2840767l4.699904-.4967186.1330496,1.174976-4.8329536.4967186v1.6229097Zm4.687486-7.3283732v2.5075419h-1.2595364v-1.3931774h-7.4371782v1.6232054h-1.2601277v-2.7375699h4.3244084v-1.1870983l1.3565148.0363669c.1093964,0,.2306193,0,.2306193.1091007,0,.0606115-.012418.0606115-.1697122.2421503-.0727338.0848561-.0727338.1333453-.0727338.2545683v.5449121h4.2877458Z"/>
              </g>
              <g>
                <path class="cls-3" d="m34.9917473,70.5303862h2.3260031l1.5087827,11.378995h.0416889l1.5087827-11.378995h2.1166716l-2.2213373,14.6688686h-3.05955l-2.2210417-14.6688686Z"/>
                <path class="cls-3" d="m47.7925992,70.5303862h2.3050108v14.6688686h-2.3050108v-14.6688686Z"/>
                <path class="cls-3" d="m56.0053088,70.5303862h2.8919074l2.242034,8.780388h.0419845v-8.780388h2.0536948v14.6688686h-2.3679876l-2.7662495-10.7081292h-.0416889v10.7081292h-2.0536948v-14.6688686Z"/>
                <path class="cls-3" d="m70.943529,72.6260656h-2.4096765v-2.0956794h7.1246594v2.0956794h-2.4099721v12.5731892h-2.3050108v-12.5731892Z"/>
                <path class="cls-3" d="m81.7752466,70.5303862h3.1225268l2.3886842,14.6688686h-2.3050108l-.4189585-2.9128997v.0419845h-2.6195992l-.4189585,2.8709152h-2.1373683l2.3886842-14.6688686Zm2.5146378,9.8072354l-1.0268474-7.250613h-.0416889l-1.0058551,7.250613h2.0743914Z"/>
                <path class="cls-3" d="m92.3757534,81.7207464v-7.7115561c0-2.3469953,1.1734977-3.6881355,3.4365239-3.6881355,2.2633219,0,3.4368196,1.3411402,3.4368196,3.6881355v1.2571711h-2.1793528v-1.4038213c0-1.0478397-.460943-1.4461016-1.1944899-1.4461016s-1.1944899.3982619-1.1944899,1.4461016v8.0258488c0,1.047544.460943,1.4248136,1.1944899,1.4248136s1.1944899-.3772696,1.1944899-1.4248136v-2.8709152h-1.1525054v-2.0956794h3.3318582v4.798952c0,2.3469953-1.1734977,3.6881355-3.4368196,3.6881355-2.2630262,0-3.4365239-1.3411402-3.4365239-3.6881355Z"/>
                <path class="cls-3" d="m104.9255851,70.5303862h6.2864468v2.0956794h-3.981436v3.8767703h3.1642157v2.0953837h-3.1642157v4.5056515h3.981436v2.0953837h-6.2864468v-14.6688686Z"/>
                <path class="cls-3" d="m124.2630171,70.5303862h2.8919074l2.242034,8.780388h.0419845v-8.780388h2.0536948v14.6688686h-2.3679876l-2.7662495-10.7081292h-.0416889v10.7081292h-2.0536948v-14.6688686Z"/>
                <path class="cls-3" d="m139.180245,70.5303862h3.1225268l2.3886842,14.6688686h-2.3050108l-.4189585-2.9128997v.0419845h-2.6195992l-.4189585,2.8709152h-2.1376639l2.3889799-14.6688686Zm2.5146378,9.8072354l-1.0268474-7.250613h-.0416889l-1.0058551,7.250613h2.0743914Z"/>
                <path class="cls-3" d="m150.8294785,72.6260656h-2.4096765v-2.0956794h7.1246594v2.0956794h-2.4099721v12.5731892h-2.3050108v-12.5731892Z"/>
                <path class="cls-3" d="m160.7597109,81.7207464v-11.1903602h2.3053064v11.3580027c0,1.047544.4399507,1.4248136,1.1734977,1.4248136.7332512,0,1.1734977-.3772696,1.1734977-1.4248136v-11.3580027h2.2210417v11.1903602c0,2.3469953-1.1734977,3.6881355-3.4365239,3.6881355-2.2633219,0-3.4368196-1.3411402-3.4368196-3.6881355Z"/>
                <path class="cls-3" d="m173.4561928,70.5303862h3.4155316c2.3889799,0,3.4158273,1.1108165,3.4158273,3.3738427v.9011894c0,1.5087827-.4819353,2.4726533-1.5087827,2.8919074v.0419845c1.1525054.3559817,1.529775,1.4458059,1.529775,3.1012388v2.5776147c0,.712259.0209923,1.2361788.251316,1.7810909h-2.3469953c-.125658-.3772696-.2093314-.6075933-.2093314-1.8020832v-2.6822804c0-1.3621325-.3982619-1.8023789-1.4461016-1.8023789h-.7962281v6.2867425h-2.3050108v-14.6688686Zm3.1432234,6.2867425c.8592049,0,1.3831247-.3772696,1.3831247-1.5507673v-1.1315131c0-1.0478397-.3562773-1.5087827-1.1734977-1.5087827h-1.0478397v4.1910631h.8382126Z"/>
                <path class="cls-3" d="m187.8707889,70.5303862h3.1225268l2.3886842,14.6688686h-2.3050108l-.4189711-2.9128997v.0419845h-2.6195866l-.4189585,2.8709152h-2.1373683l2.3886842-14.6688686Zm2.5146378,9.8072354l-1.0268474-7.250613h-.0416889l-1.0058551,7.250613h2.0743914Z"/>
                <path class="cls-3" d="m198.6812056,70.5303862h2.3050236v12.5734849h3.7928012v2.0953837h-6.0978249v-14.6688686Z"/>
                <path class="cls-3" d="m217.6206843,70.5303862h3.2898736l1.4670938,10.4987978h.0416889l1.4667847-10.4987978h3.2901828v14.6688686h-2.1793528v-11.1063911h-.0419845l-1.6764252,11.1063911h-1.9277412l-1.6764252-11.1063911h-.0419845v11.1063911h-2.0117103v-14.6688686Z"/>
                <path class="cls-3" d="m232.9151818,81.7207464v-7.7115561c0-2.3469953,1.2364745-3.6881355,3.4995007-3.6881355s3.4995007,1.3411402,3.4995007,3.6881355v7.7115561c0,2.3469953-1.2364745,3.6881355-3.4995007,3.6881355s-3.4995007-1.3411402-3.4995007-3.6881355Zm4.6939907.1466502v-8.0048566c0-1.0478397-.460943-1.4461016-1.1944899-1.4461016s-1.1944899.3982619-1.1944899,1.4461016v8.0048566c0,1.0478397.460943,1.4458059,1.1944899,1.4458059s1.1944899-.3979662,1.1944899-1.4458059Z"/>
                <path class="cls-3" d="m245.6533525,70.5303862h3.520493c2.3050108,0,3.4365239,1.278459,3.4365239,3.6254544v7.4182556c0,2.3469953-1.1315131,3.6251587-3.4365239,3.6251587h-3.520493v-14.6688686Zm3.4785084,12.5734849c.7335469,0,1.1734977-.3772696,1.1734977-1.4251093v-7.627587c0-1.0478397-.4399507-1.4251093-1.1734977-1.4251093h-1.1734977v10.4778055h1.1734977Z"/>
                <path class="cls-3" d="m258.3495388,70.5303862h6.2864468v2.0956794h-3.981436v3.8767703h3.1642157v2.0953837h-3.1642157v4.5056515h3.981436v2.0953837h-6.2864468v-14.6688686Z"/>
                <path class="cls-3" d="m270.1448312,70.5303862h3.4155316c2.3889799,0,3.416123,1.1108165,3.416123,3.3738427v.9011894c0,1.5087827-.4819353,2.4726533-1.5090784,2.8919074v.0419845c1.1525054.3559817,1.529775,1.4458059,1.529775,3.1012388v2.5776147c0,.712259.0206966,1.2361788.251316,1.7810909h-2.3470101c-.1253475-.3772696-.2093166-.6075933-.2093166-1.8020832v-2.6822804c0-1.3621325-.3979662-1.8023789-1.4463972-1.8023789h-.7959324v6.2867425h-2.3050108v-14.6688686Zm3.1435191,6.2867425c.8586136,0,1.3825334-.3772696,1.3825334-1.5507673v-1.1315131c0-1.0478397-.3559817-1.5087827-1.173202-1.5087827h-1.0478397v4.1910631h.8385083Z"/>
                <path class="cls-3" d="m282.778632,70.5303862h2.8916118l2.2423296,8.780388h.0419845v-8.780388h2.0536948v14.6688686h-2.3682833l-2.7656581-10.7081292h-.0419845v10.7081292h-2.0536948v-14.6688686Z"/>
              </g>
              <line class="cls-10" x1="101.6461392" y1="88.503808" x2="123.1777848" y2="67.503808"/>
              <line class="cls-10" x1="194.6045446" y1="88.503808" x2="216.1361902" y2="67.503808"/>
              <line class="cls-10" x1="279.1949562" y1="88.0217391" x2="300.7266018" y2="67.0217391"/>
            </g>
          </g>
          <rect class="cls-5" y="0" width="325" height="110"/>
        </g>
      </g>
    </g>
  </g>
</svg>