<?xml version="1.0" encoding="utf-8"?>
<!-- Generator: Adobe Illustrator 28.0.0, SVG Export Plug-In . SVG Version: 6.00 Build 0)  -->
<svg version="1.1" id="レイヤー_1" xmlns="http://www.w3.org/2000/svg" xmlns:xlink="http://www.w3.org/1999/xlink" x="0px"
	 y="0px" viewBox="0 0 757 110" style="enable-background:new 0 0 757 110;" xml:space="preserve">
<style type="text/css">
	.st0{fill:#231815;}
	.st1{fill:none;stroke:#000000;stroke-width:1.0627;stroke-miterlimit:10;}
</style>
<g>
	<g>
		<path class="st0" d="M13.3,99.9v-0.6h1.6v0.7c0,0.8,0.3,1,0.9,1s0.9-0.3,0.9-1.1c0-0.9-0.3-1.4-1.4-2.4c-1.4-1.2-1.9-2.1-1.9-3.3
			c0-1.7,0.9-2.6,2.5-2.6c1.6,0,2.4,1,2.4,2.7v0.4h-1.6v-0.6c0-0.8-0.3-1.1-0.8-1.1s-0.8,0.3-0.8,1c0,0.8,0.4,1.3,1.4,2.3
			c1.4,1.2,1.8,2.1,1.8,3.4c0,1.7-0.9,2.7-2.5,2.7C14.1,102.6,13.3,101.6,13.3,99.9z"/>
		<path class="st0" d="M22,93.3h-1.7v-1.5h5.2v1.5h-1.7v9.1H22L22,93.3L22,93.3z"/>
		<path class="st0" d="M29.3,97.9l-2-6.1H29l1.1,3.9h0l1.1-3.9H33l-2,6.1v4.5h-1.7L29.3,97.9L29.3,97.9z"/>
		<path class="st0" d="M35.2,91.8h1.7v9.1h2.8v1.5h-4.4L35.2,91.8L35.2,91.8z"/>
		<path class="st0" d="M42,91.8h4.5v1.5h-2.9v2.8h2.3v1.5h-2.3v3.3h2.9v1.5H42V91.8z"/>
		<path class="st0" d="M52.9,91.8h1.7v4.3h1.8v-4.3h1.7v10.6h-1.7v-4.8h-1.8v4.8h-1.7C52.9,102.4,52.9,91.8,52.9,91.8z"/>
		<path class="st0" d="M60.7,99.9v-5.6c0-1.7,0.9-2.7,2.5-2.7c1.6,0,2.5,1,2.5,2.7v5.6c0,1.7-0.9,2.7-2.5,2.7
			C61.6,102.6,60.7,101.6,60.7,99.9z M64.1,100v-5.8c0-0.8-0.3-1.1-0.9-1.1s-0.9,0.3-0.9,1.1v5.8c0,0.8,0.3,1.1,0.9,1.1
			C63.8,101.1,64.1,100.8,64.1,100z"/>
		<path class="st0" d="M68.3,99.9v-8.1H70v8.2c0,0.8,0.3,1,0.8,1s0.8-0.3,0.8-1v-8.2h1.6v8.1c0,1.7-0.8,2.7-2.5,2.7
			S68.3,101.6,68.3,99.9z"/>
		<path class="st0" d="M75.7,99.9v-0.6h1.6v0.7c0,0.8,0.3,1,0.9,1s0.9-0.3,0.9-1.1c0-0.9-0.3-1.4-1.4-2.4c-1.4-1.2-1.8-2.1-1.8-3.3
			c0-1.7,0.9-2.6,2.5-2.6c1.6,0,2.4,1,2.4,2.7v0.4h-1.6v-0.6c0-0.8-0.3-1.1-0.8-1.1s-0.8,0.3-0.8,1c0,0.8,0.3,1.3,1.4,2.3
			c1.4,1.2,1.8,2.1,1.8,3.4c0,1.7-0.9,2.7-2.5,2.7S75.7,101.6,75.7,99.9z"/>
		<path class="st0" d="M83.2,91.8h4.6v1.5h-2.9v2.8h2.3v1.5h-2.3v3.3h2.9v1.5h-4.6V91.8z"/>
		<path class="st0" d="M89.9,99.9v-0.6h1.6v0.7c0,0.8,0.3,1,0.9,1s0.9-0.3,0.9-1.1c0-0.9-0.3-1.4-1.4-2.4c-1.4-1.2-1.8-2.1-1.8-3.3
			c0-1.7,0.9-2.6,2.5-2.6c1.6,0,2.4,1,2.4,2.7v0.4h-1.6v-0.6c0-0.8-0.3-1.1-0.8-1.1s-0.8,0.3-0.8,1c0,0.8,0.3,1.3,1.4,2.3
			c1.4,1.2,1.8,2.1,1.8,3.4c0,1.7-0.9,2.7-2.5,2.7S89.9,101.6,89.9,99.9z"/>
	</g>
</g>
<g>
	<path d="M152,90.4l-0.2-0.7c-1.1,0.8-2,1.2-3,1.2c-1.8,0-2.4-1.6-2.4-2.8c0-1.6,0.9-4.4,4.6-6.3c0-0.9,0.1-1.4,0.2-1.9
		c-0.4,0-0.9,0-1.5,0c-0.7,0-1.2,0-1.6-0.1l-0.5-2.2c0.5,0.1,1.4,0.3,2.7,0.3c0.6,0,0.9,0,1.2-0.1c0.3-1.7,0.5-2.4,0.8-3.5l2,0.7
		c0.4,0.1,0.5,0.2,0.5,0.3c0,0.2,0,0.2-0.4,0.3c-0.2,0.1-0.7,1.6-0.8,2c1.9-0.3,3.2-0.6,4.9-1.3v2.3c-2,0.5-3.2,0.7-5.4,1
		c-0.1,0.8-0.2,0.9-0.2,1.4c0.2,0,0.7-0.1,1.5-0.1c0.4,0,0.6,0,0.8,0c0.1-0.2,0.3-0.8,0.3-1l2.2,0.5c-0.1,0.3-0.1,0.4-0.3,0.8
		c0.9,0.3,3.6,1.3,3.6,4.6c0,1.8-1.1,4.8-5.7,6l-1.3-1.8c1-0.2,4.8-1,4.8-4.1c0-2-1.1-2.5-2-2.9c-1,2-1.7,3.4-3.1,4.9
		c0.2,0.7,0.3,1,0.4,1.2L152,90.4z M150.9,84c-1.8,1.3-2.5,3-2.5,3.9c0,0.6,0.3,1,0.7,1c0.7,0,1.5-0.8,2.1-1.3
		C151.1,86.8,150.9,84.8,150.9,84z M154.6,82.8c-0.7,0-1.1,0-1.8,0.3c0,0.9,0.1,2.2,0.2,2.8C153.3,85.5,153.8,84.7,154.6,82.8z"/>
	<path d="M177.5,75c0.2,0.1,0.6,0.2,0.6,0.4c0,0.1-0.3,0.3-0.4,0.3c-0.2,0.1-0.7,1.7-0.8,2c1.5-0.3,2.1-0.5,2.6-0.7l-0.1,2.3
		c-0.8,0.2-1.7,0.4-3.2,0.6c-1.4,3.8-4,8.2-4.2,8.4l-2.2-1c1.9-2.1,3.1-4.6,4.1-7.2c-0.8,0-1.9,0.1-2.7,0.1l-0.1-2.1
		c0.4,0,1.1,0.1,1.9,0.1c0.6,0,1.1,0,1.6-0.1c0.4-1.2,0.8-2.4,1-3.7L177.5,75z M182.7,91.2c-0.7-0.7-1.2-1.1-1.9-1.6
		c-0.2,0.8-0.5,2.4-3.3,2.4c-2.2,0-4-1.1-4-2.9c0-1.6,1.4-2.8,3.4-2.8c0.9,0,1.5,0.1,1.9,0.2c0-0.4-0.1-2.4-0.1-2.8
		c0-1.3,0.4-1.8,1-2.4l2,1.2c-0.9,0.8-0.9,1.1-0.9,1.7c0,0.5,0.1,2.6,0.1,3c1.4,0.7,2.4,1.4,3.3,2.2L182.7,91.2z M176.7,88.1
		c-1.2,0-1.3,0.7-1.3,1c0,0.9,1.2,1.1,1.8,1.1c1.4,0,1.5-1,1.5-1.5C177.8,88.2,177.3,88.1,176.7,88.1z M184,82.5
		c-1.2-1.2-3.1-2-4.4-2.4l1.1-1.6c2.1,0.5,3.6,1.5,4.5,2.3L184,82.5z"/>
	<path d="M200.8,75.2c0.2,0,0.6,0.2,0.6,0.3c0,0,0,0.1-0.1,0.2s-0.3,0.2-0.4,0.3c-0.1,0.1-0.5,2-0.6,2.3c2.1-0.5,2.7-0.9,3.2-1.2
		l0.1,2.2c-1.2,0.5-2.4,0.8-3.9,1.1c-1.6,5.5-3,8.5-4.1,10.7l-2.3-0.9c2.4-3.6,3.6-7.8,4.1-9.5c-1.1,0.1-1.8,0.1-3.1,0.2l-0.1-2.3
		c0.5,0.1,1,0.2,1.9,0.2c0.8,0,1.4-0.1,1.7-0.1c0.5-2.2,0.6-3,0.6-4L200.8,75.2z M208.5,90.8c-1,0.2-2.6,0.2-3.2,0.2
		c-3.7,0-5.3-0.6-5.3-2.8c0-0.6,0.1-1.3,0.2-1.8l2.1,0.5c-0.1,0.2-0.2,0.4-0.2,0.7c0,0.8,0.4,1.2,2.6,1.2c2,0,3.1-0.3,3.7-0.5
		L208.5,90.8z M208.3,83.3c-1-0.2-2.2-0.4-3.2-0.4c-0.3,0-1.6,0-2.7,0.3v-2.2c0.5,0,2.8-0.1,3.3-0.1c1.8,0,2.3,0.1,2.7,0.2
		L208.3,83.3L208.3,83.3z"/>
	<path d="M225.3,89.2c1.3-0.4,5.3-1.5,5.3-6c0-4.5-3.8-5.1-5-5.3c-0.3,2.4-0.8,5.7-2.5,9.5c-0.2,0.5-1.2,2.6-2.3,2.6
		c-1.2,0-4.1-1.8-4.1-5.8c0-4.4,3.5-8.3,8.6-8.3c4.6,0,7.5,3,7.5,7.2c0,5.6-4.5,7.3-6,7.8L225.3,89.2z M218.6,84.3
		c0,1.8,1,3.1,1.7,3.1c0.4,0,0.8-0.8,1.1-1.4c1.1-2.5,1.7-5.1,1.9-7.8C219.1,79.6,218.6,82.9,218.6,84.3z"/>
	<path d="M241.6,82.1v-2h10.9c0.3,0,0.6,0,1.2-0.6l2,1.9c-0.9,0.6-1.1,0.9-1.4,1.7c-1.9,4.8-4.6,7.2-8.7,8.8l-1.9-1.7
		c5-1.7,7.2-3.9,8.5-8.1C252.2,82.1,241.6,82.1,241.6,82.1z M253,75.8v2h-9.5v-2H253z"/>
	<path d="M271.3,82.5c-2,1.4-3.5,2.2-5.2,2.9l-1.7-1.9c6.3-2.3,10.1-6.6,11.9-8.7l1.5,1.3c0.6,0.5,0.6,0.5,0.6,0.7s-0.1,0.2-0.6,0.2
		c-0.2,0-0.3,0.1-1,0.9c-1,1-2.1,2-3.2,2.9v10.6h-2.3V82.5z"/>
	<path d="M289.4,79v-2.1h11c0.3,0,0.6,0,1-0.4l1.9,1.8c-0.6,0.4-0.6,0.4-1.4,2.9c-0.8,2.3-2.5,6.8-9,10.1l-1.8-1.8
		c5.9-2.6,8-6.1,9.2-10.5C300.1,79,289.4,79,289.4,79z"/>
	<path d="M325.6,90.5c-1.1-1.7-2.6-3.4-5-5.3c-1.3,1.5-3,3.5-7,5.3l-1.7-1.7c2.2-1,7.3-3.3,10-10h-7.8v-2.1h8.1c0.4,0,0.9,0,1.7-0.6
		l1.6,1.9c-0.9,0.4-1,0.6-1.3,1.2c-0.1,0.2-0.7,1.7-2.3,4.2c3.2,2.4,4.7,4.4,5.4,5.3L325.6,90.5z"/>
	<path d="M337.4,90c3.3-1.1,5.3-2.8,6.7-4.4c-1.5-1.1-2.6-1.8-3.7-2.3l1.3-1.5c1.2,0.5,2.3,1.2,3.6,2.1c0.5-0.8,1.3-2.1,1.9-4h-5.4
		c-0.6,0.9-1.9,2.8-3.8,4.1l-1.9-1.3c3.6-2.5,5.1-5.7,5.9-8l1.9,0.8c0.5,0.2,0.5,0.3,0.5,0.4c0,0.1-0.1,0.2-0.3,0.2
		c-0.2,0.1-0.3,0.1-0.6,0.6c-0.2,0.4-0.4,0.8-0.6,1.2h4.5c0.4,0,0.8-0.3,1.2-0.6l1.7,1.5c-0.7,0.6-0.8,0.8-1.1,1.5
		c-0.9,2.5-1.9,4-2.3,4.7c0.6,0.4,1.2,1,1.7,1.5l-1.5,1.8c-0.2-0.2-0.9-1.1-1.5-1.6c-1,1.2-2.8,3.2-6.8,4.8L337.4,90z"/>
	<path d="M366.1,82.5c-2,1.4-3.5,2.2-5.2,2.9l-1.7-1.9c6.3-2.3,10.1-6.6,11.9-8.7l1.5,1.3c0.6,0.5,0.6,0.5,0.6,0.7s-0.1,0.2-0.6,0.2
		c-0.2,0-0.3,0.1-1,0.9c-1,1-2.1,2-3.2,2.9v10.6h-2.3V82.5z"/>
	<path d="M381.8,88.2c3.6-2.5,4.2-4.6,4.2-9.2c0-1.2,0-2-0.1-2.6l2.1,0.3c0.6,0.1,0.6,0.1,0.6,0.3c0,0.1-0.1,0.3-0.2,0.4
		c-0.2,0.2-0.3,0.2-0.3,0.8c0,5.1,0,8.1-4.7,11.8L381.8,88.2z M390.6,76.4l2.1,0.3c0.6,0.1,0.7,0.1,0.7,0.3c0,0.1-0.1,0.2-0.3,0.4
		c-0.3,0.2-0.3,0.3-0.3,0.5v9.1c1.6-1.1,3.6-2.6,5.4-5.6l1.4,1.8c-0.7,1-2.9,4.2-7.6,6.9l-1.3-1.2V76.4z"/>
	<path d="M421.5,82.8c-0.6,0.2-3.5,1.4-4.1,1.6c0.1,1.3,0.2,2.7,0.2,4h-2.3c0.1-2.6,0.1-2.7,0.1-3.2c-0.7,0.4-2.8,1.4-2.8,3
		c0,1.4,1.7,1.6,2.8,1.6c0.7,0,2.5-0.1,5.2-0.7v2.2c-1.2,0.2-2.6,0.4-4.5,0.4c-2.3,0-5.6-0.3-5.6-3.1c0-2.8,2.9-4.3,4.8-5.2
		c-0.1-0.5-0.4-1.4-1.6-1.4c-1.8,0-3.5,2.3-4.4,3.8l-1.8-1.2c2.3-2.3,3.5-4.3,4-5.4c-0.3,0-1.9,0.1-2.8,0.1l-0.3-2.1
		c0.9,0.1,1.7,0.1,2.6,0.1c0.5,0,0.6,0,1.4,0c0.3-0.8,0.6-1.8,0.8-2.7l1.9,0.3c0.7,0.1,0.7,0.2,0.7,0.3c0,0.1,0,0.1-0.4,0.4
		c-0.1,0-0.6,1.2-0.7,1.4c1.1-0.1,3.1-0.5,4.1-1l-0.2,2.1c-1.5,0.4-3.9,0.7-4.8,0.8c-0.4,0.8-0.7,1.2-1,1.7c0.3-0.1,0.9-0.3,1.7-0.3
		c1.9,0,2.4,1.1,2.7,2.2c0.5-0.2,2.2-0.9,3.5-1.9L421.5,82.8z"/>
	<path d="M440,89.6c-1.6,0.5-3.4,1-7.4,2c-0.3,0.1-0.6,0.2-0.6,0.3c-0.2,0.3-0.3,0.3-0.4,0.3c-0.2,0-0.3-0.1-0.4-0.5l-0.7-2
		c1.3-0.2,1.9-0.3,3.4-0.5v-2.1c-1.3,0.7-2,1-3.3,1.5l-1.4-1.7c3.7-1.3,5.3-2.1,7.1-3.7h-6.7v-1.8h7.5v-1.1h-5v-1.6h5v-1H430v-1.8
		h6.9v-1.5l2,0.1c0.3,0,0.6,0.1,0.6,0.2c0,0.1-0.1,0.2-0.1,0.2c-0.2,0.3-0.3,0.4-0.3,0.6v0.3h7.3v1.8H439v1h5.3v1.6H439v1.1h7.8v1.8
		h-7.5c0.7,1.3,1.2,2.1,1.9,3c1.3-1.1,1.9-1.6,3-2.9l1.2,1.2c0.1,0.1,0.3,0.3,0.3,0.4s-0.1,0.2-0.4,0.2c-0.1,0-0.3,0.2-0.4,0.3
		c-0.6,0.5-1.9,1.4-2.6,1.9c1.3,1.1,2.5,2,4.5,2.7l-1.6,1.8c-3.9-2.1-4.9-3.3-7.4-7.3c-0.7,0.6-1.2,1-1.9,1.4v2.9
		c1.1-0.3,2.4-0.6,3.9-1.1L440,89.6z"/>
	<path d="M457.5,86.4c0.4-0.1,1-0.3,2.5-0.8l0.1,1.7c-2.5,1-3.6,1.3-5.7,1.8c-0.4,0.1-0.4,0.1-0.5,0.4c-0.1,0.1-0.2,0.3-0.4,0.3
		c-0.2,0-0.3-0.2-0.3-0.4l-0.4-1.8c0.3-0.1,1.4-0.3,2.7-0.6v-4.1h-2.2v-1.7h2.2v-3.6H453v-1.7h6.9v1.7h-2.4v3.6h2v1.7h-2V86.4z
		 M463.9,85.6c0.5,0.2,0.5,0.2,0.5,0.4c0,0.2-0.1,0.2-0.4,0.3c-0.2,0.1-0.2,0.1-0.4,0.5c-0.7,2.3-1.6,3.7-5,5l-1.4-1.6
		c3.8-1.1,4.4-2.7,4.8-5.2h-1.2v-9.9h8.6v9.9H467v4c0,0.4,0.3,0.6,0.7,0.6h0.6c0.8,0,1-0.9,1.1-2.1l1.7,0.8c0,0.2-0.4,1.8-0.7,2.4
		c-0.4,0.6-1,0.8-1.6,0.8h-2.1c-1.6,0-1.7-0.9-1.7-1.7v-4.7h-2.3L463.9,85.6z M467.4,76.7h-4.7V78h4.7V76.7z M467.4,79.4h-4.7v1.3
		h4.7V79.4z M467.4,82.2h-4.7v1.4h4.7V82.2z"/>
	<path d="M486.9,74.7c0.8,0.1,0.9,0.1,0.9,0.4c0,0.1-0.1,0.2-0.2,0.3c-0.2,0.2-0.2,0.2-0.2,2.3c1.9-0.1,3.8-0.2,5.7-0.4v2.2
		c-0.7,0-2.9-0.1-3.4-0.1c-0.8,0-1.5,0-2.3,0.1l0,2.6c0.4,0.6,0.8,1.2,0.8,2.5c0,1.1-0.2,2.5-0.9,4c-0.8,1.8-1.7,2.7-2.8,3.7l-2.2-1
		c2.4-1.5,2.9-2.7,3.5-4c-0.3,0.4-0.7,0.8-1.8,0.8c-1.4,0-2.8-1.1-2.8-3.4c0-2.2,1.4-3.8,3.4-3.8c0.3,0,0.5,0,0.7,0.1v-1.3
		c-5.6,0.5-6.8,0.7-7.5,0.8l-0.2-2.4c1.9,0,3.3-0.1,7.6-0.3c-0.1-1.3-0.1-2-0.4-3.3L486.9,74.7z M483.2,84.6c0,0.3,0.1,1.6,1.1,1.6
		c0.5,0,1.3-0.4,1.3-1.7c0-1.3-0.5-1.6-1.2-1.6C483.8,82.9,483.2,83.7,483.2,84.6z"/>
	<path d="M502,85.3c2.7-2.1,5.3-4.6,7.3-7.4c-2,0.3-2.6,0.3-4.8,0.5l-0.3-2.3c0.6,0,1.5,0.1,2.1,0.1c1.1,0,4.7-0.3,6.4-1l0.9,1.6
		c-1.2,0.9-2.3,2.2-4.4,4.5c0.4-0.1,0.9-0.2,1.7-0.2c4,0,4.7,2.9,4.7,4.6c0,3.5-2.8,5.7-6.4,5.7c-1.3,0-4.1-0.3-4.1-2.9
		c0-1.3,0.9-2.7,3.1-2.7c2.6,0,3.5,2,3.8,2.6c0.6-0.5,1.4-1.2,1.4-2.8c0-1.1-0.5-2.8-3.2-2.8s-4.2,1.6-6.5,4.1L502,85.3z
		 M508.1,87.5c-0.6,0-1.2,0.4-1.2,0.9c0,0.8,1.1,1.1,1.9,1.1c0.5,0,1-0.1,1.2-0.2C510,88.7,509.6,87.5,508.1,87.5z"/>
	<path d="M527.3,82.1v5c0.4-0.1,1.2-0.4,1.6-0.6l0.1,1.6c-0.6,0.2-3.4,1.2-3.8,1.3c-0.2,0.1-0.2,0.2-0.4,0.4
		c-0.1,0.1-0.1,0.2-0.2,0.2c-0.2,0-0.2-0.2-0.3-0.5l-0.1-1.8c0.3-0.1,0.9-0.2,1.1-0.2v-12l2,0.1c1.5-0.1,3.5-0.5,5.1-1.2l1,1.3
		c0.2,0.3,0.3,0.4,0.3,0.5c0,0.1-0.1,0.2-0.2,0.2c-0.1,0-0.5,0-0.6,0c-0.3,0.1-1.4,0.4-1.8,0.5c-0.1,1.5-0.1,2.1-0.1,3.4h2.6v1.7
		h-2.5c0.1,1.5,0.4,3.3,0.9,4.8c0.1,0.3,0.3,0.8,0.5,0.8c0.4,0,0.5-0.6,0.5-1.2l1.5,0.7V75h6l1.3,0.9c-1.3,2.7-2.1,4.2-2.6,5.2
		c0.8,0.9,2.3,2.6,2.3,5.5c0,2.9-2,3.2-3.7,3.4l-1-1.9c1.5,0,2.6-0.1,2.6-1.8c0-1.7-0.9-3.4-2.5-4.8c0.7-1.4,1.3-2.5,2.1-4.6h-2.6
		v15.1h-2v-3.6c-0.3,1.1-0.8,2.5-1.9,2.5c-0.8,0-1.3-0.6-1.5-0.9v1.5H526v-1.8h5c-1.3-2-1.8-5.8-1.8-7.5
		C529.2,82.1,527.3,82.1,527.3,82.1z M529.1,80.4c0-0.4,0-1.8,0-3c-0.5,0.1-1,0.1-1.8,0.1v2.9H529.1z"/>
	<path d="M557,88.7c0,0.6,0.1,1,1.1,1h3.9c0.7,0,1.3-0.1,1.4-2.4l2,0.9c-0.1,3.2-1.7,3.6-2.8,3.6h-5.3c-0.9,0-2.4-0.2-2.4-1.9v-3.6
		l-6.6,0.7l-0.2-1.9l6.8-0.7v-1.8c-0.8,0.2-1.6,0.3-3.4,0.6l-1-1.9c2.3-0.2,6.6-0.6,9.7-2.4l1.3,1.4c0.2,0.2,0.2,0.2,0.2,0.3
		s-0.1,0.1-0.2,0.1c-0.4,0-0.5,0-0.7,0.1c-2.1,0.9-2.3,1-3.9,1.4v2.1l7.8-0.8l0.2,1.9l-8,0.8L557,88.7L557,88.7z M564.8,76.6v4.1
		h-2.1v-2.3h-12.3v2.7h-2.1v-4.5h7.1v-2l2.2,0.1c0.2,0,0.4,0,0.4,0.2c0,0.1,0,0.1-0.3,0.4c-0.1,0.1-0.1,0.2-0.1,0.4v0.9H564.8z"/>
</g>
<g>
	<path d="M144.7,27.1h3.8l2.5,18.8h0.1l2.5-18.8h3.5l-3.7,24.2h-5.1L144.7,27.1z"/>
	<path d="M165.9,27.1h3.8v24.2h-3.8V27.1z"/>
	<path d="M179.4,27.1h4.8l3.7,14.5h0.1V27.1h3.4v24.2h-3.9l-4.6-17.7h-0.1v17.7h-3.4L179.4,27.1L179.4,27.1z"/>
	<path d="M204.1,30.6h-4v-3.5h11.8v3.5h-4v20.8h-3.8L204.1,30.6L204.1,30.6z"/>
	<path d="M222,27.1h5.2l3.9,24.2h-3.8l-0.7-4.8v0.1h-4.3l-0.7,4.7h-3.5L222,27.1z M226.1,43.3l-1.7-12h-0.1l-1.7,12H226.1z"/>
	<path d="M239.5,45.6V32.8c0-3.9,1.9-6.1,5.7-6.1c3.7,0,5.7,2.2,5.7,6.1v2.1h-3.6v-2.3c0-1.7-0.8-2.4-2-2.4s-2,0.7-2,2.4v13.2
		c0,1.7,0.8,2.3,2,2.3s2-0.6,2-2.3v-4.7h-1.9v-3.5h5.5v7.9c0,3.9-1.9,6.1-5.7,6.1C241.4,51.7,239.5,49.5,239.5,45.6z"/>
	<path d="M260.2,27.1h10.4v3.5H264V37h5.2v3.5H264v7.4h6.6v3.5h-10.4V27.1z"/>
	<path d="M292.2,27.1h4.8l3.7,14.5h0.1V27.1h3.4v24.2h-3.9l-4.6-17.7h-0.1v17.7h-3.4V27.1z"/>
	<path d="M316.8,27.1h5.2l3.9,24.2h-3.8l-0.7-4.8v0.1h-4.3l-0.7,4.7h-3.5L316.8,27.1z M321,43.3l-1.7-12h-0.1l-1.7,12H321z"/>
	<path d="M336,30.6h-4v-3.5h11.8v3.5h-4v20.8H336L336,30.6L336,30.6z"/>
	<path d="M352.4,45.6V27.1h3.8v18.8c0,1.7,0.7,2.3,1.9,2.3s1.9-0.6,1.9-2.3V27.1h3.7v18.5c0,3.9-1.9,6.1-5.7,6.1
		C354.4,51.7,352.4,49.5,352.4,45.6z"/>
	<path d="M373.4,27.1h5.6c4,0,5.6,1.8,5.6,5.6v1.5c0,2.5-0.8,4.1-2.5,4.8V39c1.9,0.6,2.5,2.4,2.5,5.1v4.3c0,1.2,0,2,0.4,2.9h-3.9
		c-0.2-0.6-0.4-1-0.4-3v-4.4c0-2.2-0.7-3-2.4-3h-1.3v10.4h-3.8L373.4,27.1L373.4,27.1z M378.6,37.5c1.4,0,2.3-0.6,2.3-2.6v-1.9
		c0-1.7-0.6-2.5-1.9-2.5h-1.7v6.9H378.6z"/>
	<path d="M397.2,27.1h5.2l3.9,24.2h-3.8l-0.7-4.8v0.1h-4.3l-0.7,4.7h-3.5L397.2,27.1z M401.4,43.3l-1.7-12h-0.1l-1.7,12H401.4z"/>
	<path d="M415.1,27.1h3.8v20.8h6.3v3.5h-10.1V27.1z"/>
	<path d="M446.3,27.1h5.4l2.4,17.3h0.1l2.4-17.3h5.4v24.2h-3.6V33h-0.1l-2.8,18.3h-3.2L449.7,33h-0.1v18.3h-3.3L446.3,27.1
		L446.3,27.1z"/>
	<path d="M471.6,45.6V32.8c0-3.9,2-6.1,5.8-6.1s5.8,2.2,5.8,6.1v12.7c0,3.9-2,6.1-5.8,6.1S471.6,49.5,471.6,45.6z M479.4,45.8V32.6
		c0-1.7-0.8-2.4-2-2.4s-2,0.7-2,2.4v13.2c0,1.7,0.8,2.4,2,2.4S479.4,47.6,479.4,45.8z"/>
	<path d="M492.6,27.1h5.8c3.8,0,5.7,2.1,5.7,6v12.2c0,3.9-1.9,6-5.7,6h-5.8V27.1z M498.4,47.9c1.2,0,1.9-0.6,1.9-2.3V32.9
		c0-1.7-0.7-2.4-1.9-2.4h-1.9v17.3C496.4,47.9,498.4,47.9,498.4,47.9z"/>
	<path d="M513.6,27.1H524v3.5h-6.6V37h5.2v3.5h-5.2v7.4h6.6v3.5h-10.4V27.1z"/>
	<path d="M533.1,27.1h5.6c4,0,5.6,1.8,5.6,5.6v1.5c0,2.5-0.8,4.1-2.5,4.8V39c1.9,0.6,2.5,2.4,2.5,5.1v4.3c0,1.2,0,2,0.4,2.9h-3.9
		c-0.2-0.6-0.3-1-0.3-3v-4.4c0-2.2-0.7-3-2.4-3h-1.3v10.4h-3.8L533.1,27.1L533.1,27.1z M538.3,37.5c1.4,0,2.3-0.6,2.3-2.6v-1.9
		c0-1.7-0.6-2.5-1.9-2.5h-1.7v6.9H538.3z"/>
	<path d="M554,27.1h4.8l3.7,14.5h0.1V27.1h3.4v24.2H562l-4.6-17.7h-0.1v17.7H554L554,27.1L554,27.1z"/>
</g>
<line class="st1" x1="243.9" y1="67.4" x2="301.3" y2="11.5"/>
<line class="st1" x1="397.4" y1="67.4" x2="454.8" y2="11.5"/>
<line class="st1" x1="537.1" y1="67.4" x2="594.5" y2="11.5"/>
<g>
	<g>
		<g>
			<g>
				<g>
					<g>
						<path d="M633.6,60.5c0,0,1.6,0,2.4,0c0.8,0,1.8,0.1,1.8,1c0,0.9,0,8.2,0,8.2s-2.7,1-7.6,1c-4.9,0-11.4-2.6-11.4-10
							c0-7.3,6.8-10.2,11.8-10.2c2.3,0,5.1,0.1,5.1,1.4v2.5c-1.9-1.5-2.7-1.8-5.6-1.8c-2.9,0-8.1,1.9-8.1,8c0,6.1,7,9.7,12.8,7.4
							c0,0,0-3.7,0-4.7C634.8,62.3,634.7,60.5,633.6,60.5z"/>
						<path d="M670,70.2h6.2c-1.7-0.6-2.4-2.6-3-4.1c-0.6-1.5-5-12.1-5.5-13.6c-0.5-1.5-1.2-1.5-1.8-1.5s-3.5,0-3.5,0
							c1.7,0.6,0.8,1.8,0.5,2.6c-0.3,0.8-6.2,15.3-6.2,15.3c-2.1-0.6-7.2-8-7.2-8c6.9-2,5.8-9.9-0.9-9.9c-0.8,0-7.7,0-7.7,0
							c1.5,0.3,1.4,2,1.4,3.2c0,1.3,0,11.4,0,13.2c0,1.8-0.6,2.3-1.5,2.8h5.7c-1.5-0.7-1.1-2.3-1.1-3.1c0-0.8,0-14.2,0-14.2
							s1.4,0,3,0c1.6,0,2.8,2,2.8,3.3c0,2.2-1.7,3-3.4,3.6c-1.7,0.6-0.8,2,0,3.1c0.8,1.1,3,4.2,4.4,5.8c1.3,1.5,2.5,1.5,3.2,1.5
							c0.6,0,5.1,0,5.1,0c-2-0.6-0.9-2.2-0.7-2.9c0.3-0.8,1.6-4,1.6-4h7.6c0,0,0.9,2.4,1.8,4.5C671.6,69.8,671,70.1,670,70.2z
							 M662.1,61l2.9-7.5l3.1,7.5H662.1z"/>
						<path d="M732,70.2h6.2c-1.7-0.6-2.4-2.6-3-4.1c-0.6-1.5-5-12.1-5.5-13.6c-0.5-1.5-1.2-1.5-1.8-1.5c-0.6,0-3.5,0-3.5,0
							c1.7,0.6,0.8,1.8,0.5,2.6c-0.3,0.8-6.2,15.3-6.2,15.3c-0.4,0.9-1,0.9-1.3,1.2c0.6,0,5.1,0,5.1,0c-2-0.6-0.9-2.2-0.6-2.9
							c0.3-0.8,1.6-4,1.6-4h7.7c0,0,0.9,2.4,1.8,4.5C733.6,69.8,733,70.1,732,70.2z M724.1,61l2.9-7.5l3.1,7.5H724.1z"/>
						<path d="M710.3,70.6c0.7-0.6,1.3-1.1,1.3-3.3c0-2.2,0-12.1,0-13.2c0-1,0-2.2-1.3-2.7h5.5c-0.6,0.5-1.2,1.1-1.2,2.5
							c0,1.4,0,12.1,0,13.3s-0.3,2.9,1.3,3.3L710.3,70.6L710.3,70.6z"/>
						<path d="M680.9,55.5c0,0-0.1,10.5-0.1,11.7s0.2,2.9,1.7,3.3h-5.2c0.7-0.6,1.3-1.1,1.3-3.3c0-2.2,0.1-12.1,0.1-13.2
							c0-1-0.1-2.2-1.4-2.7h4l11.9,14.7c0,0,0-11.2,0-12c0-0.8,0.2-2.2-1.5-2.8h5.3c-0.6,0.5-1.6,0.7-1.6,2.7c0,2,0,17.3,0,17.3
							s-1.5,0.3-3.9-2.6C689.2,65.9,680.9,55.5,680.9,55.5z"/>
						<path d="M714.8,85.4c-15.6-12.9-21.5-28.1-0.2-48.9c0.7-0.6,1.3-0.3,0.8,0.3c-9.3,10.5-19.7,27.3-0.2,47.9
							C715.4,85.1,715.3,85.8,714.8,85.4z"/>
					</g>
				</g>
			</g>
		</g>
	</g>
	<path d="M742.5,70.4c-1.4,0-2.6-1.2-2.6-2.6s1.2-2.6,2.6-2.6c1.4,0,2.6,1.2,2.6,2.6S743.9,70.4,742.5,70.4z M742.5,65.5
		c-1.3,0-2.3,1-2.3,2.3s1,2.3,2.3,2.3c1.3,0,2.3-1,2.3-2.3C744.8,66.5,743.8,65.5,742.5,65.5z"/>
	<g>
		<path d="M743.1,69.2c-0.1-0.1-0.1-0.1-0.1-0.3v-0.3c0-0.2-0.1-0.5-0.4-0.5H742v1.1h-0.5v-2.8h1.3c0.5,0,0.9,0.3,0.9,0.8
			c0,0.2-0.1,0.3-0.2,0.5c-0.1,0.1-0.2,0.2-0.4,0.2c0.3,0,0.5,0.1,0.5,0.7v0.3c0,0.3,0.1,0.3,0.2,0.4L743.1,69.2L743.1,69.2z
			 M742.7,66.8h-0.7v0.8h0.7c0.3,0,0.5-0.2,0.5-0.4C743.1,66.9,742.9,66.8,742.7,66.8z"/>
	</g>
</g>
</svg>
